# 3ds Max Wavefront OBJ Exporter v0.99 - (c)2007 guruware
# File Created: 08.07.2022 16:08:49

mtllib FlatBigRock02.mtl

#
# object FlatBigRock01
#

v  1.1562 0.7190 -0.2676
v  0.6021 0.7826 -0.4010
v  1.0136 0.6429 0.0356
v  0.5187 0.6773 0.0160
v  -0.6137 0.7901 0.5867
v  -1.0044 0.8233 0.7155
v  -0.9119 0.5915 0.7241
v  -0.6528 0.6262 0.7244
v  -1.0266 0.6254 0.8559
v  -0.7324 0.3266 0.8644
v  -0.2903 0.5738 0.7304
v  -0.2811 0.6939 0.6855
v  -0.4494 0.3327 0.9215
v  -0.1307 0.6967 0.5496
v  -0.1267 0.5604 0.6444
v  -0.2209 0.3552 0.7507
v  0.1422 0.4548 0.6484
v  0.4278 0.5626 0.5705
v  0.1423 0.6299 0.6070
v  0.4265 0.4649 0.6369
v  1.2419 0.4695 0.6963
v  0.9034 0.4940 0.6523
v  0.9097 0.4090 0.7119
v  1.2232 0.3915 0.7354
v  0.2492 0.3891 0.8170
v  0.4794 0.3796 0.7791
v  0.9608 0.3355 0.8662
v  0.9969 0.1613 0.8635
v  1.3717 0.1893 0.7705
v  -0.9503 0.3269 0.7601
v  -1.3366 0.3899 0.9296
v  -1.4170 0.3849 1.0382
v  -1.2446 0.3338 1.0786
v  -1.0573 0.3509 0.8914
v  -1.1725 0.1795 1.1745
v  -1.1716 0.1809 1.1722
v  -1.0050 0.2739 1.0968
v  -0.2088 0.2393 0.9582
v  -0.6100 0.2495 1.1792
v  -0.4029 0.2583 1.0200
v  -0.1024 0.1693 0.9874
v  -0.0659 0.1711 0.8369
v  -0.2198 0.1280 1.0701
v  -0.3445 0.1098 1.1349
v  -0.5084 0.0849 1.2487
v  -1.3061 0.1462 1.1188
v  -1.0666 0.1314 1.1881
v  -1.4696 0.1959 1.0774
v  1.5364 0.6087 0.0900
v  1.3870 0.4851 0.5422
v  1.5944 0.5578 0.0900
v  1.4007 0.3749 0.7038
v  1.5905 0.5119 0.1126
v  1.7358 0.3108 0.2426
v  1.4604 0.1810 0.7547
v  1.7556 0.1490 0.2431
v  1.5968 0.5239 -0.2308
v  1.5932 0.6099 -0.2528
v  -1.4011 0.6331 0.8760
v  -1.3664 0.8235 0.7151
v  -1.6270 0.9215 0.4135
v  -1.7214 0.7329 0.5032
v  -1.8231 0.3915 -0.1522
v  -1.9043 0.1980 -0.1712
v  -1.8198 0.1442 0.5889
v  -1.7561 0.3894 0.5568
v  -1.3616 -0.0129 1.1416
v  -1.7426 -0.0129 0.6158
v  -1.0438 1.0577 -0.5797
v  -1.3297 1.0374 -0.4418
v  -1.1108 1.0233 -0.0198
v  -0.9939 1.0361 -0.0978
v  -0.3833 0.9615 -0.5051
v  -0.6371 0.9693 -0.0077
v  -0.3409 0.8894 -0.0111
v  -0.1115 0.8361 -0.0057
v  0.2468 0.8378 -0.4882
v  0.1993 0.7432 0.0098
v  1.5525 0.6735 -0.1722
v  -0.1627 0.2894 -0.7193
v  0.4533 0.1421 -0.7729
v  -0.1162 0.1282 -0.7458
v  -0.1539 0.3910 -0.7093
v  0.3871 0.3629 -0.7047
v  -1.3263 0.8910 -0.5460
v  -1.6248 0.8700 -0.3267
v  -1.5753 1.0195 -0.1700
v  1.1339 0.6899 -0.3988
v  1.7596 0.3146 -0.1706
v  1.6164 0.3439 -0.3745
v  -1.7295 0.8327 -0.1515
v  -1.3426 1.0205 0.1910
v  -1.0409 0.8681 -0.7028
v  -0.2767 0.6965 -0.7059
v  1.7477 0.1489 -0.2440
v  -0.9994 0.2384 -1.0493
v  -1.0343 0.4730 -0.9754
v  -0.1696 0.2894 -0.8252
v  -0.0920 0.1714 -0.8826
v  -1.6586 0.4498 -0.7683
v  -1.7167 0.2241 -0.7779
v  0.3164 0.6023 -0.6910
v  -1.0505 0.4778 -0.7297
v  -1.4996 0.4707 -0.5261
v  -1.0957 0.5028 -0.7166
v  -1.1038 0.5096 -0.9442
v  -1.6036 0.5078 -0.7612
v  -1.3293 0.4786 -0.9514
v  1.6605 0.1762 -0.4205
v  1.1286 0.1575 -0.5941
v  1.0394 0.3810 -0.5806
v  -1.0372 0.6288 -0.7371
v  -1.5968 0.6255 -0.4053
v  -1.7869 0.6027 -0.1370
v  -1.7178 0.4963 0.5372
v  1.0925 0.5625 -0.4699
v  0.7196 0.5826 -0.5944
v  -1.3064 0.2128 -1.0137
v  -0.0103 -0.0129 0.9230
v  0.2800 -0.0129 0.8520
v  0.2463 0.1784 0.8392
v  0.5629 -0.0129 0.8251
v  0.4947 0.1498 0.8756
v  1.0894 -0.0129 0.7822
v  1.3764 -0.0129 0.6814
v  -0.0218 -0.0129 1.0166
v  1.6316 -0.0129 0.3398
v  1.6262 -0.0129 -0.2924
v  1.1509 -0.0129 -0.5003
v  0.5202 -0.0129 -0.6814
v  -0.5326 -0.0129 1.2306
v  -0.3381 -0.0129 1.1350
v  -0.1771 -0.0129 1.1009
v  -1.1290 -0.0129 1.1688
v  -1.8114 -0.0129 -0.1919
v  -0.9620 -0.0129 -0.9922
v  -1.2870 -0.0129 -0.9450
v  -1.5998 -0.0129 -0.7881
v  -0.0755 -0.0129 -0.7514
v  -0.0945 -0.0129 -0.8117
# 140 vertices

vn 0.1334 0.9905 -0.0331
vn 0.1779 0.9539 -0.2415
vn 0.0560 0.9664 0.2507
vn 0.1241 0.9644 0.2336
vn 0.1922 0.7512 0.6315
vn 0.1969 0.7644 0.6139
vn 0.5668 0.2396 0.7882
vn 0.0858 0.3944 0.9149
vn 0.4348 0.3129 0.8444
vn -0.2098 0.3430 0.9156
vn -0.0495 0.5009 0.8641
vn 0.1338 0.8530 0.5045
vn -0.0283 0.5389 0.8419
vn 0.3016 0.4216 0.8551
vn 0.2732 0.7019 0.6578
vn 0.1268 0.4808 0.8676
vn 0.2657 0.8211 0.5052
vn 0.2804 0.3813 0.8809
vn 0.3415 0.5298 0.7764
vn 0.0218 0.6651 0.7464
vn 0.1084 0.7995 0.5908
vn 0.1560 0.7291 0.6664
vn 0.0254 0.7009 0.7128
vn 0.1514 0.7974 0.5842
vn -0.0011 0.8116 0.5842
vn -0.0118 0.7596 0.6503
vn 0.1899 0.4978 0.8462
vn -0.0275 0.6268 0.7787
vn -0.0052 0.6371 0.7708
vn 0.0751 0.5633 0.8228
vn 0.1404 -0.0629 0.9881
vn 0.2307 -0.0290 0.9726
vn -0.3948 0.4024 0.8260
vn -0.1981 0.8735 0.4447
vn -0.0565 0.7879 0.6132
vn -0.2956 0.7416 0.6022
vn 0.1369 0.7006 0.7003
vn 0.4408 0.6247 0.6445
vn -0.1168 0.3669 0.9229
vn 0.5359 0.6079 0.5859
vn -0.0651 0.8366 0.5439
vn 0.6362 0.5482 0.5428
vn 0.1722 0.8905 0.4212
vn 0.3879 0.7667 0.5116
vn 0.0500 0.7077 0.7047
vn 0.3226 0.7564 0.5691
vn 0.6288 0.5744 0.5241
vn 0.3905 0.5000 0.7730
vn 0.3434 0.4590 0.8194
vn 0.4070 0.3600 0.8395
vn 0.2530 0.1805 0.9505
vn -0.2384 0.1897 0.9525
vn -0.0568 0.1968 0.9788
vn -0.5942 0.1028 0.7977
vn 0.4337 0.8574 0.2769
vn 0.4389 0.8024 0.4045
vn 0.8864 0.4160 0.2031
vn 0.5208 0.4741 0.7099
vn 0.8276 0.5147 0.2241
vn 0.8739 0.4013 0.2741
vn 0.5792 -0.0711 0.8121
vn 0.9482 -0.2218 0.2275
vn 0.7949 0.3901 -0.4647
vn 0.7111 0.4893 -0.5050
vn -0.3688 0.3357 0.8668
vn -0.1966 0.7703 0.6066
vn -0.5079 0.8043 0.3086
vn -0.8468 0.3495 0.4010
vn -0.9364 0.3235 -0.1361
vn -0.9949 -0.0405 -0.0926
vn -0.9419 -0.0414 0.3334
vn -0.8600 0.3473 0.3739
vn -0.4364 -0.0136 0.8996
vn -0.8602 -0.3372 0.3825
vn -0.0654 0.8734 -0.4825
vn -0.3264 0.8633 -0.3849
vn 0.0471 0.9879 0.1480
vn 0.0648 0.9883 0.1383
vn 0.1999 0.9078 -0.3687
vn 0.1752 0.9677 0.1813
vn 0.2292 0.9554 0.1864
vn 0.2193 0.9565 0.1925
vn 0.2009 0.9245 -0.3239
vn 0.2028 0.9567 0.2087
vn 0.4397 0.8981 0.0087
vn 0.3275 0.4843 -0.8113
vn 0.1193 -0.0353 -0.9922
vn 0.7315 0.1651 -0.6616
vn 0.0218 0.0506 -0.9985
vn 0.1053 0.1963 -0.9749
vn -0.5060 0.3395 -0.7929
vn -0.7129 0.3838 -0.5869
vn -0.5009 0.8529 -0.1472
vn 0.2784 0.7029 -0.6545
vn 0.9271 0.3351 -0.1677
vn 0.5584 0.4274 -0.7110
vn -0.9136 0.3520 -0.2037
vn -0.0205 0.9811 0.1925
vn -0.1741 0.3540 -0.9189
vn 0.0901 0.3578 -0.9294
vn 0.9414 -0.2134 -0.2613
vn 0.0462 0.0491 -0.9977
vn 0.1811 0.7367 -0.6515
vn 0.5703 0.7309 -0.3748
vn 0.7448 0.1658 -0.6463
vn -0.7220 0.4522 -0.5238
vn -0.8073 -0.0356 -0.5891
vn 0.1446 0.3996 -0.9052
vn 0.2119 0.7269 -0.6533
vn -0.3753 0.8386 -0.3948
vn -0.1639 0.7493 -0.6416
vn 0.1418 0.9159 -0.3756
vn -0.3763 0.8803 -0.2890
vn -0.2614 0.6073 -0.7502
vn 0.6219 -0.0785 -0.7791
vn 0.2979 -0.1257 -0.9463
vn 0.2925 0.3121 -0.9039
vn -0.2110 0.0925 -0.9731
vn -0.7002 0.1363 -0.7008
vn -0.9579 0.1508 -0.2441
vn -0.8819 0.1876 0.4326
vn 0.3254 0.4360 -0.8391
vn 0.2207 0.4606 -0.8598
vn -0.2972 -0.0310 -0.9543
vn 0.6358 0.4073 0.6556
vn 0.0351 0.0638 0.9973
vn 0.0058 0.1839 0.9829
vn 0.0253 -0.2582 0.9658
vn -0.0097 0.0105 0.9999
vn 0.2034 -0.3395 0.9183
vn 0.5137 -0.4007 0.7587
vn 0.7555 0.3939 0.5235
vn 0.7985 -0.4915 0.3476
vn 0.6603 -0.5796 -0.4777
vn 0.2856 -0.4749 -0.8324
vn 0.1721 -0.3730 -0.9117
vn 0.1706 -0.1180 0.9783
vn 0.4132 0.0335 0.9100
vn 0.3940 0.2549 0.8831
vn -0.1694 -0.0310 0.9851
vn -0.9047 -0.4057 -0.1302
vn 0.0443 -0.2681 -0.9624
vn -0.2961 -0.2598 -0.9191
vn -0.6735 -0.3233 -0.6647
vn 0.6765 -0.1267 -0.7254
vn 0.8504 -0.0615 -0.5225
# 146 vertex normals

vt 0.6772 0.7369 0.0000
vt 0.5732 0.6828 0.0000
vt 0.7022 0.6750 0.0000
vt 0.6294 0.6023 0.0000
vt 0.5151 0.3440 0.0000
vt 0.4490 0.2913 0.0000
vt 0.4911 0.2641 0.0000
vt 0.5351 0.2994 0.0000
vt 0.4590 0.2464 0.0000
vt 0.5540 0.2251 0.0000
vt 0.6104 0.3413 0.0000
vt 0.5914 0.3639 0.0000
vt 0.6255 0.2493 0.0000
vt 0.6052 0.4074 0.0000
vt 0.6377 0.3795 0.0000
vt 0.6674 0.3184 0.0000
vt 0.7015 0.4179 0.0000
vt 0.7166 0.4961 0.0000
vt 0.6658 0.4437 0.0000
vt 0.7413 0.4788 0.0000
vt 0.8406 0.6397 0.0000
vt 0.7982 0.5810 0.0000
vt 0.8199 0.5707 0.0000
vt 0.8566 0.6299 0.0000
vt 0.7557 0.4125 0.0000
vt 0.7864 0.4679 0.0000
vt 0.8599 0.5626 0.0000
vt 0.9041 0.5605 0.0000
vt 0.9074 0.6584 0.0000
vt 0.5067 0.2176 0.0000
vt 0.4120 0.1718 0.0000
vt 0.4013 0.1449 0.0000
vt 0.4405 0.1378 0.0000
vt 0.4829 0.1927 0.0000
vt 0.4722 0.0989 0.0000
vt 0.4723 0.1001 0.0000
vt 0.5092 0.1407 0.0000
vt 0.7004 0.2591 0.0000
vt 0.6132 0.1682 0.0000
vt 0.6525 0.2230 0.0000
vt 0.7380 0.2572 0.0000
vt 0.7417 0.3038 0.0000
vt 0.7218 0.2155 0.0000
vt 0.6945 0.1807 0.0000
vt 0.6554 0.1363 0.0000
vt 0.4317 0.0861 0.0000
vt 0.5049 0.0907 0.0000
vt 0.3887 0.1020 0.0000
vt 0.7681 0.7395 0.0000
vt 0.8298 0.6782 0.0000
vt 0.7767 0.7499 0.0000
vt 0.8647 0.6666 0.0000
vt 0.7850 0.7516 0.0000
vt 0.8323 0.7698 0.0000
vt 0.9059 0.6789 0.0000
vt 0.8584 0.7928 0.0000
vt 0.7401 0.7912 0.0000
vt 0.7334 0.7769 0.0000
vt 0.3934 0.2262 0.0000
vt 0.3894 0.2694 0.0000
vt 0.3355 0.2999 0.0000
vt 0.3211 0.2675 0.0000
vt 0.1912 0.3217 0.0000
vt 0.1485 0.2992 0.0000
vt 0.2543 0.1575 0.0000
vt 0.2898 0.2065 0.0000
vt 0.4126 0.0351 0.0000
vt 0.2378 0.1120 0.0000
vt 0.3280 0.4676 0.0000
vt 0.3079 0.4262 0.0000
vt 0.3721 0.3947 0.0000
vt 0.3801 0.4163 0.0000
vt 0.4074 0.5475 0.0000
vt 0.4378 0.4423 0.0000
vt 0.4842 0.4804 0.0000
vt 0.5220 0.5109 0.0000
vt 0.5034 0.6410 0.0000
vt 0.5769 0.5543 0.0000
vt 0.7351 0.7622 0.0000
vt 0.3335 0.7054 0.0000
vt 0.4522 0.8248 0.0000
vt 0.3236 0.7504 0.0000
vt 0.3515 0.6877 0.0000
vt 0.4635 0.7674 0.0000
vt 0.2853 0.4422 0.0000
vt 0.2730 0.3872 0.0000
vt 0.3025 0.3748 0.0000
vt 0.6577 0.7568 0.0000
vt 0.7769 0.8180 0.0000
vt 0.7354 0.8311 0.0000
vt 0.2719 0.3554 0.0000
vt 0.3574 0.3482 0.0000
vt 0.3023 0.4917 0.0000
vt 0.3775 0.6146 0.0000
vt 0.7818 0.8521 0.0000
vt 0.1570 0.5954 0.0000
vt 0.1958 0.5559 0.0000
vt 0.3084 0.7082 0.0000
vt 0.2945 0.7347 0.0000
vt 0.1501 0.4443 0.0000
vt 0.1051 0.4334 0.0000
vt 0.4758 0.7077 0.0000
vt 0.2390 0.5286 0.0000
vt 0.2026 0.4293 0.0000
vt 0.2377 0.5171 0.0000
vt 0.1952 0.5386 0.0000
vt 0.1635 0.4502 0.0000
vt 0.1666 0.5081 0.0000
vt 0.7449 0.8639 0.0000
vt 0.6225 0.8748 0.0000
vt 0.6128 0.8172 0.0000
vt 0.2651 0.5163 0.0000
vt 0.2297 0.3981 0.0000
vt 0.2351 0.3364 0.0000
vt 0.3020 0.2260 0.0000
vt 0.6398 0.7792 0.0000
vt 0.5612 0.7495 0.0000
vt 0.1165 0.5353 0.0000
vt 0.8033 0.2717 0.0000
vt 0.8596 0.3535 0.0000
vt 0.8036 0.3783 0.0000
vt 0.9058 0.4306 0.0000
vt 0.8514 0.4359 0.0000
vt 0.9644 0.5788 0.0000
vt 0.9631 0.6794 0.0000
vt 0.7983 0.2394 0.0000
vt 0.9158 0.7969 0.0000
vt 0.7870 0.9126 0.0000
vt 0.6311 0.9297 0.0000
vt 0.4527 0.8761 0.0000
vt 0.6660 0.1077 0.0000
vt 0.7234 0.1516 0.0000
vt 0.7637 0.1915 0.0000
vt 0.4939 0.0411 0.0000
vt 0.0888 0.2740 0.0000
vt 0.1071 0.6483 0.0000
vt 0.0556 0.5584 0.0000
vt 0.0356 0.4506 0.0000
vt 0.3075 0.7906 0.0000
vt 0.2897 0.7830 0.0000
# 140 texture coords

o FlatBigRock01
g FlatBigRock01
usemtl 02___Default
s off
f 1/1/1 2/2/2 3/3/3 
f 2/2/2 4/4/4 3/3/3 
f 5/5/5 6/6/6 7/7/7 8/8/8 
f 7/7/7 6/6/6 9/9/9 
f 8/8/8 7/7/10 10/10/11 
f 5/5/12 8/8/13 11/11/14 12/12/15 
f 11/11/14 8/8/13 10/10/11 13/13/16 
f 14/14/17 12/12/15 11/11/14 15/15/18 
f 15/15/18 11/11/14 16/16/19 
f 17/17/20 15/15/18 16/16/19 
f 18/18/21 19/19/22 17/17/20 20/20/23 
f 21/21/24 22/22/25 23/23/26 24/24/27 
f 19/19/22 14/14/17 15/15/18 17/17/20 
f 17/17/20 16/16/19 25/25/28 
f 17/17/20 25/25/28 26/26/29 20/20/23 
f 24/24/27 23/23/26 27/27/30 
f 24/24/27 27/27/30 28/28/31 29/29/32 
f 27/27/30 20/20/23 26/26/29 
f 7/7/10 30/30/33 10/10/34 
f 11/11/14 13/13/16 16/16/19 
f 31/31/35 32/32/36 33/33/37 34/34/38 
f 35/35/39 36/36/40 34/34/38 33/33/37 
f 37/37/41 34/34/38 35/35/39 
f 30/30/42 34/34/38 37/37/41 
f 16/16/19 13/13/43 38/38/44 
f 39/39/45 13/13/43 10/10/34 
f 38/38/44 13/13/43 40/40/46 
f 40/40/46 13/13/43 39/39/45 
f 16/16/19 38/38/44 41/41/47 42/42/48 
f 38/38/44 43/43/49 41/41/47 
f 40/40/46 39/39/45 44/44/50 
f 43/43/49 40/40/46 44/44/50 
f 39/39/45 37/37/41 45/45/51 
f 39/39/45 45/45/51 44/44/50 
f 35/35/39 33/33/37 46/46/52 
f 37/37/41 47/47/53 45/45/51 
f 46/46/52 33/33/37 32/32/36 48/48/54 
f 49/49/55 50/50/56 51/51/57 
f 50/50/56 21/21/24 24/24/27 52/52/58 
f 53/53/59 52/52/58 54/54/60 
f 52/52/58 24/24/27 29/29/32 55/55/61 
f 54/54/60 52/52/58 55/55/61 56/56/62 
f 57/57/63 58/58/64 51/51/57 53/53/59 
f 59/59/65 60/60/66 61/61/67 62/62/68 
f 63/63/69 64/64/70 65/65/71 66/66/72 
f 67/67/73 48/48/54 65/65/71 68/68/74 
f 69/69/75 70/70/76 71/71/77 72/72/78 
f 73/73/79 69/69/75 72/72/78 74/74/80 
f 73/73/79 75/75/81 76/76/82 
f 73/73/79 74/74/80 75/75/81 
f 77/77/83 73/73/79 76/76/82 78/78/84 
f 2/2/2 77/77/83 78/78/84 4/4/4 
f 58/58/64 79/79/85 49/49/55 51/51/57 
f 80/80/86 81/81/87 82/82/88 
f 80/80/86 83/83/89 84/84/90 
f 70/70/76 85/85/91 86/86/92 87/87/93 
f 88/88/94 2/2/2 1/1/1 
f 89/89/95 90/90/96 57/57/63 
f 91/91/97 87/87/93 86/86/92 
f 92/92/98 87/87/93 61/61/67 
f 93/93/99 69/69/75 73/73/79 94/94/100 
f 85/85/91 70/70/76 69/69/75 93/93/99 
f 6/6/6 60/60/66 59/59/65 9/9/9 
f 95/95/101 89/89/95 54/54/60 56/56/62 
f 57/57/63 53/53/59 54/54/60 89/89/95 
f 51/51/57 50/50/56 52/52/58 53/53/59 
f 70/70/76 87/87/93 92/92/98 71/71/77 
f 30/30/33 39/39/45 10/10/34 
f 37/37/41 39/39/45 30/30/42 
f 37/37/41 35/35/39 47/47/53 
f 96/96/102 97/97/103 98/98/104 99/99/105 
f 63/63/69 100/100/106 101/101/107 64/64/70 
f 73/73/79 77/77/83 94/94/100 
f 94/94/100 77/77/83 102/102/108 
f 103/103/109 80/80/86 98/98/104 97/97/103 
f 80/80/86 82/82/88 99/99/105 98/98/104 
f 104/104/110 105/105/111 106/106/112 107/107/113 
f 63/63/69 104/104/110 107/107/113 
f 97/97/103 106/106/112 105/105/111 103/103/109 
f 108/108/114 106/106/112 97/97/103 
f 63/63/69 107/107/113 100/100/106 
f 109/109/115 90/90/96 89/89/95 95/95/101 
f 110/110/116 90/90/96 109/109/115 
f 111/111/117 90/90/96 110/110/116 
f 80/80/86 84/84/90 81/81/87 
f 80/80/86 103/103/109 112/112/118 83/83/89 
f 103/103/109 105/105/111 112/112/118 
f 113/113/119 112/112/118 105/105/111 104/104/110 
f 104/104/110 63/63/69 114/114/120 113/113/119 
f 31/31/35 115/115/121 66/66/72 
f 116/116/122 117/117/123 2/2/2 88/88/94 
f 118/118/124 108/108/114 97/97/103 96/96/102 
f 101/101/107 100/100/106 108/108/114 118/118/124 
f 107/107/113 108/108/114 100/100/106 
f 107/107/113 106/106/112 108/108/114 
f 57/57/63 90/90/96 111/111/117 
f 42/42/48 119/119/125 120/120/126 121/121/127 
f 121/121/127 120/120/126 122/122/128 123/123/129 
f 28/28/31 124/124/130 125/125/131 29/29/32 
f 123/123/129 122/122/128 124/124/130 28/28/31 
f 41/41/47 126/126/132 119/119/125 42/42/48 
f 29/29/32 125/125/131 55/55/61 
f 55/55/61 125/125/131 127/127/133 56/56/62 
f 56/56/62 127/127/133 128/128/134 95/95/101 
f 95/95/101 128/128/134 109/109/115 
f 109/109/115 128/128/134 129/129/135 110/110/116 
f 110/110/116 129/129/135 130/130/136 81/81/87 
f 77/77/83 2/2/2 117/117/123 102/102/108 
f 84/84/90 111/111/117 110/110/116 81/81/87 
f 45/45/51 131/131/137 132/132/138 44/44/50 
f 133/133/139 126/126/132 43/43/49 
f 43/43/49 126/126/132 41/41/47 
f 43/43/49 44/44/50 132/132/138 133/133/139 
f 38/38/44 40/40/46 43/43/49 
f 35/35/39 134/134/140 47/47/53 
f 47/47/53 134/134/140 131/131/137 45/45/51 
f 46/46/52 67/67/73 134/134/140 35/35/39 
f 35/35/39 34/34/38 36/36/40 
f 48/48/54 67/67/73 46/46/52 
f 64/64/70 135/135/141 65/65/71 
f 96/96/102 136/136/142 137/137/143 118/118/124 
f 118/118/124 137/137/143 138/138/144 101/101/107 
f 101/101/107 138/138/144 135/135/141 64/64/70 
f 81/81/87 130/130/136 139/139/145 82/82/88 
f 82/82/88 139/139/145 140/140/146 99/99/105 
f 99/99/105 140/140/146 136/136/142 96/96/102 
f 91/91/97 114/114/120 115/115/121 62/62/68 
f 59/59/65 31/31/35 34/34/38 9/9/9 
f 9/9/9 34/34/38 30/30/42 7/7/7 
f 93/93/99 112/112/118 85/85/91 
f 85/85/91 112/112/118 113/113/119 
f 85/85/91 113/113/119 86/86/92 
f 86/86/92 113/113/119 114/114/120 91/91/97 
f 111/111/117 117/117/123 116/116/122 
f 117/117/123 111/111/117 84/84/90 102/102/108 
f 102/102/108 84/84/90 83/83/89 94/94/100 
f 94/94/100 83/83/89 112/112/118 93/93/99 
f 16/16/19 42/42/48 121/121/127 25/25/28 
f 25/25/28 121/121/127 123/123/129 26/26/29 
f 26/26/29 123/123/129 28/28/31 27/27/30 
f 61/61/67 87/87/93 91/91/97 62/62/68 
f 65/65/71 48/48/54 32/32/36 66/66/72 
f 65/65/71 135/135/141 68/68/74 
f 115/115/121 114/114/120 63/63/69 66/66/72 
f 66/66/72 32/32/36 31/31/35 
f 115/115/121 31/31/35 59/59/65 62/62/68 
f 61/61/67 60/60/66 6/6/6 92/92/98 
f 92/92/98 6/6/6 5/5/5 71/71/77 
f 71/71/77 5/5/5 72/72/78 
f 72/72/78 5/5/12 74/74/80 
f 74/74/80 5/5/12 12/12/15 75/75/81 
f 75/75/81 12/12/15 14/14/17 76/76/82 
f 76/76/82 14/14/17 19/19/22 78/78/84 
f 78/78/84 19/19/22 18/18/21 4/4/4 
f 22/22/25 21/21/24 3/3/3 
f 3/3/3 21/21/24 50/50/56 49/49/55 
f 3/3/3 4/4/4 18/18/21 22/22/25 
f 22/22/25 18/18/21 20/20/23 23/23/26 
f 23/23/26 20/20/23 27/27/30 
f 3/3/3 49/49/55 1/1/1 
f 1/1/1 49/49/55 79/79/85 
f 1/1/1 79/79/85 58/58/64 88/88/94 
f 88/88/94 58/58/64 57/57/63 116/116/122 
f 116/116/122 57/57/63 111/111/117 
# 92 polygons - 72 triangles

