# 3ds Max Wavefront OBJ Exporter v0.99 - (c)2007 guruware
# File Created: 13.06.2022 12:11:59

mtllib GrassFreeHighMountain02.mtl

#
# object Grass_free_High_Mountain_02
#

v  16.7823 0.0230 21.3091
v  20.6422 0.0230 18.7780
v  17.2204 9.5880 16.7102
v  13.7005 8.4353 17.9385
v  13.6283 9.6021 16.0016
v  10.8719 0.0090 17.5399
v  11.6892 0.0230 22.0963
v  19.7675 9.9798 14.9358
v  21.8192 -0.0000 16.3202
v  23.6548 -0.0000 7.8118
v  19.1260 8.8596 5.4042
v  21.8770 8.1003 7.9885
v  23.7861 -0.0000 9.3081
v  11.6879 26.6178 2.0258
v  11.8529 17.3424 1.3217
v  8.0078 17.3424 1.4235
v  7.7290 26.6151 2.0635
v  3.3171 17.3424 2.8774
v  4.0191 25.6041 4.3441
v  2.9643 17.3514 9.2833
v  3.8805 26.6152 9.0064
v  5.5556 17.3496 14.1611
v  6.0849 26.6178 13.1701
v  11.0921 17.3514 14.3251
v  10.8100 26.6165 13.3237
v  15.6360 17.3496 11.9931
v  14.9545 26.6182 11.0598
v  13.6594 26.6779 5.9082
v  14.3315 17.3509 5.4076
v  15.3089 17.3424 4.0513
v  14.3796 26.6165 4.9039
v  4.6622 26.5386 8.6170
v  5.3336 25.8688 5.1434
v  8.6134 26.5386 2.8674
v  11.1546 26.5768 3.1200
v  6.4516 30.5920 5.6143
v  8.8356 31.4165 4.0660
v  5.8607 31.4165 8.3948
v  6.7187 26.6359 11.7834
v  7.4090 31.9718 10.7788
v  10.4117 26.5386 12.5682
v  10.1896 31.4165 11.3697
v  13.5781 26.3942 10.5117
v  12.5735 30.5920 9.8214
v  12.7540 31.4165 7.1234
v  11.6161 31.9718 4.6569
v  7.3482 31.6872 6.2304
v  9.5126 32.3599 7.7178
v  11.6770 31.6872 9.2052
v  7.6337 17.3424 -0.1413
v  12.2456 17.3424 0.2414
v  13.4988 8.6757 -1.5055
v  8.5479 7.2295 -1.6146
v  4.3417 15.1739 15.6365
v  1.5479 7.6337 10.0966
v  5.4144 8.6757 17.5180
v  6.1670 17.3416 15.5476
v  11.3488 17.3424 15.3988
v  16.3558 17.3424 8.1878
v  17.5617 10.1201 13.9677
v  17.1297 9.2667 5.2367
v  16.3244 15.4099 4.8744
v  15.4614 17.3424 5.9078
v  16.3955 17.3424 13.0921
v  14.4696 0.0090 -2.8516
v  1.1244 0.0095 10.6888
v  4.5556 0.0090 18.2872
v  18.1024 -0.0000 5.6629
v  5.3058 17.1480 14.4726
v  4.3523 17.3416 13.9662
v  -1.1105 6.3280 2.5545
v  0.8184 7.1906 2.1724
v  0.7509 -0.2955 -1.2136
v  5.9439 7.2100 -0.7498
v  5.2074 -0.4970 -3.6339
v  1.4330 7.4478 1.3793
v  15.6735 17.3505 8.1897
v  14.6096 26.6172 7.3663
v  0.7839 7.1871 6.7976
v  -1.0268 6.3244 5.8748
v  -2.5984 0.0096 7.9837
v  9.0094 -0.3370 -2.7581
v  7.9854 -0.4861 -4.0433
v  2.6297 17.3424 2.3435
v  2.3976 17.3424 9.4313
v  -3.2044 -0.2952 1.1534
# 86 vertices

vn 0.3163 0.3954 0.8624
vn 0.6927 0.3141 0.6492
vn 0.1973 0.7522 0.6288
vn -0.4674 0.5852 0.6626
vn 0.0177 0.4753 0.8797
vn -0.4968 0.2654 0.8263
vn -0.4801 0.4792 0.7348
vn 0.5643 0.7515 0.3418
vn 0.9112 0.2411 0.3341
vn 0.8386 0.1270 -0.5298
vn 0.3595 0.5738 -0.7359
vn 0.8078 0.5354 -0.2466
vn 0.9679 0.2330 0.0938
vn 0.2666 0.6650 -0.6976
vn 0.2006 0.8205 -0.5353
vn -0.1376 0.7732 -0.6190
vn -0.2344 0.7203 -0.6529
vn -0.3855 0.8803 -0.2765
vn -0.6901 0.5842 -0.4273
vn -0.5860 0.7998 0.1302
vn -0.6940 0.7127 0.1020
vn -0.3532 0.7684 0.5336
vn -0.3981 0.6624 0.6346
vn 0.1358 0.8003 0.5841
vn 0.1490 0.7234 0.6742
vn 0.4246 0.8698 0.2514
vn 0.6490 0.6703 0.3599
vn 0.8796 0.4571 -0.1315
vn 0.7732 0.6308 0.0648
vn 0.8900 0.3585 -0.2817
vn 0.7799 0.6239 -0.0494
vn -0.5303 0.8473 -0.0296
vn -0.4580 0.8422 -0.2845
vn -0.1934 0.8679 -0.4576
vn 0.2179 0.8606 -0.4603
vn -0.7457 0.4267 -0.5117
vn -0.2422 0.6277 -0.7398
vn -0.7770 0.6260 0.0662
vn -0.2802 0.8701 0.4055
vn -0.3937 0.7189 0.5729
vn 0.0984 0.8891 0.4470
vn 0.2138 0.6271 0.7490
vn 0.3503 0.9164 0.1937
vn 0.7863 0.4273 0.4463
vn 0.7755 0.6301 -0.0395
vn 0.4257 0.7149 -0.5547
vn -0.4030 0.8723 -0.2769
vn 0.0075 1.0000 -0.0002
vn 0.4292 0.8650 0.2599
vn -0.1550 0.7059 -0.6912
vn 0.3041 0.7123 -0.6326
vn 0.5020 0.1729 -0.8474
vn -0.1054 0.1962 -0.9749
vn -0.6161 0.2508 0.7467
vn -0.9565 0.0986 0.2746
vn -0.4246 0.1145 0.8981
vn -0.2122 0.7555 0.6198
vn 0.1493 0.7303 0.6666
vn 0.6692 0.7399 -0.0690
vn 0.4460 0.8504 0.2793
vn 0.7899 0.3341 -0.5142
vn 0.9322 0.2117 -0.2935
vn 0.4556 0.8820 -0.1209
vn 0.6263 0.6758 0.3886
vn 0.5076 0.1593 -0.8468
vn -0.8104 0.2155 0.5448
vn -0.4798 0.1252 0.8684
vn 0.6438 0.0231 -0.7649
vn -0.3926 0.7747 0.4957
vn -0.5266 0.7530 0.3946
vn -0.6935 0.6158 -0.3741
vn -0.7901 0.4332 -0.4337
vn -0.4651 0.3264 -0.8229
vn -0.3398 0.2365 -0.9103
vn -0.3189 0.3354 -0.8865
vn -0.6422 0.2226 -0.7335
vn 0.6007 0.7844 -0.1544
vn 0.6716 0.7152 -0.1938
vn -0.9027 0.3590 0.2373
vn -0.7315 0.6063 0.3119
vn -0.8046 0.3634 0.4697
vn 0.4333 0.1605 -0.8869
vn 0.2376 0.2939 -0.9258
vn -0.6273 0.6761 -0.3866
vn -0.6932 0.7080 0.1352
vn -0.8202 0.3466 -0.4552
# 86 vertex normals

vt 0.0124 0.6132 0.0000
vt 0.0039 0.5531 0.0000
vt 0.1402 0.5567 0.0000
vt 0.5810 0.5523 0.0000
vt 0.6454 0.5531 0.0000
vt 0.5953 0.5868 0.0000
vt 0.0838 0.7115 0.0000
vt 0.0331 0.6778 0.0000
vt 0.1382 0.6079 0.0000
vt 0.1680 0.6088 0.0000
vt 0.1396 0.5155 0.0000
vt 0.0044 0.5173 0.0000
vt 0.0133 0.4021 0.0000
vt 0.1449 0.3739 0.0000
vt 0.1211 0.4186 0.0000
vt 0.0103 0.4217 0.0000
vt 0.6026 0.4956 0.0000
vt 0.6301 0.3724 0.0000
vt 0.6808 0.3847 0.0000
vt 0.6548 0.5082 0.0000
vt 0.7455 0.4005 0.0000
vt 0.7154 0.5107 0.0000
vt 0.1548 0.4052 0.0000
vt 0.2385 0.3810 0.0000
vt 0.2694 0.5036 0.0000
vt 0.2048 0.5079 0.0000
vt 0.3115 0.3641 0.0000
vt 0.3317 0.4892 0.0000
vt 0.3863 0.3561 0.0000
vt 0.3955 0.4823 0.0000
vt 0.4555 0.3526 0.0000
vt 0.4595 0.4793 0.0000
vt 0.5331 0.4867 0.0000
vt 0.5487 0.3605 0.0000
vt 0.5713 0.3613 0.0000
vt 0.5499 0.4865 0.0000
vt 0.7097 0.9731 0.0000
vt 0.6200 0.9949 0.0000
vt 0.6243 0.9778 0.0000
vt 0.6888 0.9504 0.0000
vt 0.7192 0.8764 0.0000
vt 0.7038 0.8272 0.0000
vt 0.7227 0.8122 0.0000
vt 0.7385 0.8906 0.0000
vt 0.6757 0.2627 0.0000
vt 0.7427 0.2975 0.0000
vt 0.6790 0.3626 0.0000
vt 0.6273 0.3431 0.0000
vt 0.2202 0.2905 0.0000
vt 0.2807 0.2613 0.0000
vt 0.3292 0.3417 0.0000
vt 0.2775 0.3612 0.0000
vt 0.3450 0.2323 0.0000
vt 0.3814 0.3278 0.0000
vt 0.4122 0.2112 0.0000
vt 0.4296 0.3034 0.0000
vt 0.4821 0.2019 0.0000
vt 0.4811 0.2835 0.0000
vt 0.5660 0.2212 0.0000
vt 0.5287 0.3062 0.0000
vt 0.6329 0.2416 0.0000
vt 0.5751 0.3293 0.0000
vt 0.1072 0.7753 0.0000
vt 0.1095 0.8444 0.0000
vt 0.0694 0.8445 0.0000
vt 0.1788 0.8441 0.0000
vt 0.1786 0.7474 0.0000
vt 0.2501 0.7748 0.0000
vt 0.2479 0.8437 0.0000
vt 0.2435 0.9052 0.0000
vt 0.1793 0.9408 0.0000
vt 0.1077 0.9134 0.0000
vt 0.2881 0.8442 0.0000
vt 0.9663 0.4721 0.0000
vt 0.9457 0.5193 0.0000
vt 0.8509 0.4910 0.0000
vt 0.8587 0.4343 0.0000
vt 0.9121 0.8151 0.0000
vt 0.8587 0.9077 0.0000
vt 0.8375 0.8160 0.0000
vt 0.9328 0.7926 0.0000
vt 0.9242 0.7350 0.0000
vt 0.9255 0.6199 0.0000
vt 0.8366 0.6733 0.0000
vt 0.8403 0.5756 0.0000
vt 0.9089 0.5808 0.0000
vt 0.9334 0.5721 0.0000
vt 0.9318 0.5932 0.0000
vt 0.9186 0.6739 0.0000
vt 0.8346 0.7229 0.0000
vt 0.7574 0.4622 0.0000
vt 0.7773 0.9325 0.0000
vt 0.7452 0.8443 0.0000
vt 0.7328 0.7737 0.0000
vt 0.7371 0.5633 0.0000
vt 0.9376 0.8079 0.0000
vt 0.9410 0.8200 0.0000
vt 0.5480 0.0982 0.0000
vt 0.6290 0.1312 0.0000
vt 0.6775 0.0837 0.0000
vt 0.2256 0.1940 0.0000
vt 0.2631 0.1758 0.0000
vt 0.2498 0.2488 0.0000
vt 0.3057 0.2230 0.0000
vt 0.5070 0.3560 0.0000
vt 0.5097 0.4831 0.0000
vt 0.6959 0.5643 0.0000
vt 0.6686 0.5934 0.0000
vt 0.7501 0.7136 0.0000
vt 0.7784 0.6566 0.0000
vt 0.8083 0.1708 0.0000
vt 0.7816 0.2040 0.0000
vt 0.7601 0.1944 0.0000
vt 0.7978 0.1500 0.0000
vt 0.1141 0.3272 0.0000
vt 0.0101 0.2758 0.0000
vt 0.1071 0.2909 0.0000
vt 0.3706 0.0902 0.0000
vt 0.3289 0.0341 0.0000
vt 0.3453 0.0202 0.0000
vt 0.1577 0.3502 0.0000
vt 0.0371 0.3275 0.0000
vt 0.7201 0.7289 0.0000
vt 0.9126 0.4102 0.0000
vt 0.8722 0.4069 0.0000
vt 0.8682 0.9445 0.0000
vt 0.9937 0.9431 0.0000
vt 0.8893 0.9913 0.0000
vt 0.9958 0.4175 0.0000
vt 0.4011 0.0191 0.0000
vt 0.4228 0.1017 0.0000
vt 0.8960 0.2602 0.0000
vt 0.8610 0.3187 0.0000
vt 0.8566 0.2245 0.0000
vt 0.2058 0.7048 0.0000
vt 0.2033 0.7248 0.0000
vt 0.0922 0.7433 0.0000
vt 0.1010 0.7167 0.0000
vt 0.3247 0.8202 0.0000
vt 0.3124 0.8637 0.0000
vt 0.2909 0.8759 0.0000
vt 0.3110 0.8221 0.0000
vt 0.3140 0.8975 0.0000
vt 0.3132 0.7320 0.0000
vt 0.3007 0.7539 0.0000
vt 0.0864 0.7384 0.0000
vt 0.0685 0.7502 0.0000
vt 0.2619 0.9746 0.0000
vt 0.2513 0.9563 0.0000
vt 0.1700 0.9945 0.0000
vt 0.1736 0.9653 0.0000
vt 0.0630 0.9639 0.0000
vt 0.0755 0.9524 0.0000
vt 0.0405 0.8372 0.0000
vt 0.0523 0.8383 0.0000
vt 0.5506 0.8094 0.0000
vt 0.5239 0.8804 0.0000
vt 0.5076 0.8756 0.0000
vt 0.5342 0.7845 0.0000
vt 0.6394 0.7891 0.0000
vt 0.6558 0.7707 0.0000
vt 0.5545 0.9501 0.0000
vt 0.5302 0.9683 0.0000
vt 0.6072 0.7762 0.0000
vt 0.9617 0.8712 0.0000
vt 0.8340 0.2834 0.0000
vt 0.7604 0.1943 0.0000
vt 0.6750 0.1486 0.0000
vt 0.6780 0.0817 0.0000
vt 0.6507 0.1432 0.0000
vt 0.5637 0.0259 0.0000
vt 0.9261 0.9847 0.0000
# 172 texture coords

o Grass_free_High_Mountain_02
g Grass_free_High_Mountain_02
usemtl 01___Default
s off
f 1/1/1 2/2/2 3/3/3 
f 4/4/4 3/5/3 5/6/5 
f 6/7/6 7/8/7 4/9/4 5/10/5 
f 7/8/7 1/1/1 3/3/3 4/9/4 
f 8/11/8 3/3/3 2/2/2 
f 8/11/8 2/2/2 9/12/9 
f 10/13/10 11/14/11 12/15/12 
f 12/15/12 13/16/13 10/13/10 
f 9/12/9 13/16/13 12/15/12 8/11/8 
f 14/17/14 15/18/15 16/19/16 17/20/17 
f 16/19/16 18/21/18 19/22/19 17/20/17 
f 18/23/18 20/24/20 21/25/21 19/26/19 
f 20/24/20 22/27/22 23/28/23 21/25/21 
f 22/27/22 24/29/24 25/30/25 23/28/23 
f 24/29/24 26/31/26 27/32/27 25/30/25 
f 28/33/28 29/34/29 30/35/30 31/36/31 
f 30/35/30 15/18/15 14/17/14 31/36/31 
f 19/37/19 21/38/21 32/39/32 33/40/33 
f 34/41/34 35/42/35 14/43/14 17/44/17 
f 34/45/34 33/46/33 36/47/36 37/48/37 
f 33/49/33 32/50/32 38/51/38 36/52/36 
f 32/50/32 39/53/39 40/54/40 38/51/38 
f 39/53/39 41/55/41 42/56/42 40/54/40 
f 41/55/41 43/57/43 44/58/44 42/56/42 
f 43/57/43 28/59/28 45/60/45 44/58/44 
f 28/59/28 35/61/35 46/62/46 
f 35/61/35 34/45/34 37/48/37 46/62/46 
f 38/63/38 47/64/47 36/65/36 
f 48/66/48 40/67/40 42/68/42 49/69/49 
f 48/66/48 49/69/49 45/70/45 46/71/46 
f 47/64/47 37/72/37 36/65/36 
f 48/66/48 47/64/47 38/63/38 40/67/40 
f 48/66/48 46/71/46 37/72/37 47/64/47 
f 49/69/49 42/68/42 44/73/44 
f 45/70/45 49/69/49 44/73/44 
f 50/74/50 51/75/51 52/76/52 53/77/53 
f 54/78/54 55/79/55 56/80/56 
f 57/81/57 54/78/54 56/80/56 58/82/58 
f 59/83/59 60/84/60 61/85/61 62/86/62 
f 62/86/62 30/87/30 63/88/63 
f 64/89/64 58/82/58 5/90/5 60/84/60 
f 53/77/53 52/76/52 65/91/65 
f 56/80/56 55/79/55 66/92/66 67/93/67 
f 5/90/5 56/80/56 67/93/67 6/94/6 
f 52/76/52 61/85/61 68/95/68 65/91/65 
f 69/96/69 54/78/54 57/81/57 
f 70/97/70 54/78/54 69/96/69 
f 58/82/58 56/80/56 5/90/5 
f 71/98/71 72/99/72 73/100/73 
f 74/101/74 75/102/75 76/103/76 
f 76/103/76 75/102/75 73/104/73 
f 52/76/52 51/75/51 30/87/30 
f 59/83/59 62/86/62 63/88/63 
f 52/76/52 30/87/30 62/86/62 61/85/61 
f 64/89/64 60/84/60 59/83/59 
f 26/31/26 77/105/77 78/106/78 27/32/27 
f 78/106/78 77/105/77 29/34/29 28/33/28 
f 8/107/8 60/108/60 5/6/5 3/5/3 
f 11/109/11 8/107/8 12/110/12 
f 66/111/66 79/112/79 80/113/80 81/114/81 
f 53/115/53 65/116/65 82/117/82 
f 53/118/53 82/119/82 83/120/83 
f 61/121/61 11/14/11 68/122/68 
f 68/122/68 11/14/11 10/13/10 
f 60/108/60 8/107/8 11/109/11 61/123/61 
f 76/124/76 50/74/50 74/125/74 
f 79/126/79 84/127/84 72/128/72 
f 76/124/76 84/129/84 50/74/50 
f 83/120/83 75/130/75 74/131/74 53/118/53 
f 71/132/71 80/133/80 72/134/72 
f 58/135/58 24/136/24 22/137/22 57/138/57 
f 59/139/59 63/140/63 29/141/29 77/142/77 
f 30/143/30 29/141/29 63/140/63 
f 64/144/64 26/145/26 24/136/24 58/135/58 
f 69/146/69 22/137/22 70/147/70 
f 57/138/57 22/137/22 69/146/69 
f 59/139/59 77/142/77 26/145/26 64/144/64 
f 51/148/51 15/149/15 30/143/30 
f 50/150/50 16/151/16 15/149/15 51/148/51 
f 84/152/84 18/153/18 16/151/16 50/150/50 
f 84/152/84 85/154/85 20/155/20 18/153/18 
f 70/147/70 22/137/22 20/155/20 85/154/85 
f 43/156/43 41/157/41 25/158/25 27/159/27 
f 28/160/28 31/161/31 14/43/14 35/42/35 
f 39/162/39 32/39/32 21/38/21 23/163/23 
f 41/157/41 39/162/39 23/163/23 25/158/25 
f 33/40/33 34/41/34 17/44/17 19/37/19 
f 28/160/28 43/156/43 27/159/27 78/164/78 
f 66/92/66 55/79/55 79/126/79 
f 85/165/85 55/79/55 54/78/54 70/97/70 
f 85/165/85 84/127/84 79/126/79 55/79/55 
f 28/59/28 46/62/46 45/60/45 
f 72/134/72 80/133/80 79/166/79 
f 80/167/80 71/168/71 86/169/86 81/114/81 
f 72/99/72 76/170/76 73/100/73 
f 50/74/50 53/77/53 74/125/74 
f 71/98/71 73/100/73 86/171/86 
f 84/127/84 76/172/76 72/128/72 
# 55 polygons - 43 triangles

