# 3ds Max Wavefront OBJ Exporter v0.99 - (c)2007 guruware
# File Created: 08.07.2022 14:21:16

mtllib GrassFreeHighMountain04.mtl

#
# object Grass_free_High_Mountain_01
#

v  2.3088 0.0015 5.5660
v  3.3533 0.0015 4.8585
v  3.5223 0.1907 4.8743
v  2.3619 0.1907 5.6506
v  1.2871 1.3909 4.8715
v  2.4114 1.4017 4.4684
v  0.8216 1.4608 4.3105
v  0.5257 0.0012 4.4860
v  0.8791 0.0015 5.3473
v  0.8321 0.1906 5.5091
v  0.5004 0.1906 4.7867
v  3.1740 1.1692 1.3003
v  3.1321 1.3681 1.4628
v  3.4856 1.3275 1.8989
v  3.7577 1.1961 1.9125
v  4.3299 0.1905 2.5088
v  4.1976 0.6949 2.1972
v  3.9474 0.7381 3.9766
v  4.1125 0.1906 3.9616
v  0.5659 4.1359 0.4935
v  0.6539 3.7762 0.2176
v  -0.5158 3.7892 0.0644
v  -0.3939 4.1505 0.3853
v  -0.4623 3.4064 -0.0880
v  -2.0913 3.3797 0.4195
v  -1.8249 3.6617 0.5740
v  -2.1910 3.3907 2.1298
v  -1.9563 3.7730 2.1142
v  -1.1707 3.4454 3.9144
v  -1.0729 3.8225 3.7013
v  0.5607 3.2486 4.1616
v  0.4733 3.8214 3.8994
v  1.9289 3.1959 3.2695
v  1.7284 3.7642 3.0720
v  0.9815 4.6665 1.4340
v  1.1029 4.0922 1.3846
v  1.2007 4.1158 1.1861
v  1.4030 3.2438 0.8551
v  0.7665 3.3945 0.0766
v  1.2154 3.7628 1.0292
v  -1.4041 4.0124 0.8217
v  -1.4761 4.1440 2.0337
v  -1.2127 4.6748 1.9433
v  -1.0232 4.6432 1.0915
v  -0.1890 4.6804 0.6483
v  0.4036 4.6731 0.7669
v  -0.7433 4.9378 1.2316
v  -0.1465 5.0758 0.9234
v  -0.9013 5.0745 1.9123
v  -0.6553 4.7091 2.8321
v  -0.4925 5.1737 2.5717
v  0.2714 4.6858 3.1166
v  0.2020 5.0713 2.7791
v  1.0063 4.6272 2.5809
v  0.7597 4.9104 2.3896
v  0.7793 5.0418 1.7107
v  0.5068 5.1476 1.1166
v  -0.5220 5.1245 1.4009
v  0.0101 5.2322 1.8092
v  0.5401 5.1006 2.2190
v  -0.4306 2.3960 -0.4336
v  0.9331 2.3907 -0.1100
v  1.1544 1.3039 -0.2453
v  -0.2206 1.1697 -0.9047
v  -1.0658 2.4371 4.3144
v  -2.4597 1.3514 2.6835
v  -0.9707 1.5553 4.4732
v  0.6681 2.4339 4.4005
v  1.9717 2.3875 1.9791
v  2.7352 1.5236 3.5039
v  2.4166 1.3498 1.5053
v  2.1274 1.9921 1.3569
v  1.6462 2.3883 0.8236
v  1.6828 2.3876 1.3318
v  2.1132 2.3973 3.5582
v  -0.2147 0.9580 -0.9633
v  1.3186 1.0480 -0.3714
v  1.4228 0.6173 -0.6432
v  -0.2191 0.5701 -1.2118
v  -0.9047 1.1719 4.5881
v  -2.4713 0.9921 2.7357
v  -2.8237 0.5880 2.8317
v  -1.0415 0.6823 4.8223
v  -0.9377 1.3634 4.5306
v  0.5945 1.2059 4.7239
v  1.2448 1.1631 -0.3154
v  2.4436 1.1443 1.3024
v  1.8064 3.1862 1.9498
v  1.5566 3.7575 1.8242
v  1.2763 4.1169 1.7823
v  3.3399 1.4370 3.7618
v  -1.7882 1.1554 -0.7831
v  -2.7532 1.2492 0.4447
v  -2.4596 2.3817 0.3575
v  1.4040 3.1915 1.3439
v  -2.2854 2.3932 2.1264
v  0.4092 4.1674 3.4076
v  1.4132 4.1210 2.7737
v  -0.8179 4.1751 3.2696
v  -2.8835 1.0153 0.3548
v  1.2427 3.7709 1.3281
v  3.4739 1.2982 3.9990
v  2.4218 1.2975 5.1007
v  1.1219 1.2166 5.1267
v  3.6130 0.7588 4.6067
v  3.9805 0.6949 1.8273
v  -1.0025 0.1906 4.8412
v  0.5321 0.7001 4.8649
v  3.3694 0.6808 1.1095
v  2.4936 0.9740 1.2638
v  2.4657 0.7481 5.5152
v  0.9825 0.7057 5.4547
v  -0.9463 0.0012 4.6043
v  3.8005 0.0011 4.0231
v  4.0802 0.0011 2.7807
v  3.7788 0.0011 1.8656
v  3.9158 0.1905 1.8031
v  3.2463 0.0011 1.4022
v  3.3337 0.1905 1.1854
v  2.5601 0.0011 1.4272
v  2.6737 0.1905 1.1330
v  1.3549 0.0012 -0.4291
v  1.4754 0.1905 -0.6259
v  -0.1236 0.1906 -1.1188
v  -0.0302 0.0012 -0.9224
v  -1.8159 0.0011 -0.6838
v  -1.8471 0.1906 -1.0053
v  -2.8358 0.1906 2.8960
v  -2.6579 0.0013 2.7699
v  -0.2271 1.0789 -0.9225
v  -2.4656 1.1716 2.7096
v  -2.8443 1.0994 0.4205
v  2.6668 0.5785 1.1359
v  -2.6239 0.0012 0.8152
v  -3.0300 0.1906 0.6074
v  -1.8065 1.0517 -0.8234
v  -1.9657 0.5689 -1.0986
v  -1.8231 0.9557 -0.8607
v  -3.1416 0.6002 0.3839
# 139 vertices

vn 0.1772 -0.5388 0.8236
vn 0.5449 -0.5857 0.6001
vn 0.7024 -0.2463 0.6678
vn 0.2446 -0.1705 0.9545
vn -0.0826 0.9600 0.2675
vn 0.0886 0.9753 0.2024
vn 0.0987 0.5929 0.7992
vn -0.2559 -0.7982 0.5453
vn -0.5208 -0.6009 0.6064
vn -0.5389 -0.2004 0.8182
vn -0.5107 -0.4791 0.7139
vn 0.2726 0.5541 -0.7866
vn 0.2109 0.8771 -0.4315
vn 0.4162 0.8894 -0.1892
vn 0.6871 0.6677 -0.2865
vn 0.9358 -0.3276 -0.1304
vn 0.9195 0.3245 -0.2217
vn 0.8527 0.4406 0.2806
vn 0.9083 -0.2908 0.3007
vn 0.4353 0.5338 -0.7249
vn 0.4320 0.4976 -0.7521
vn -0.1299 0.5759 -0.8071
vn -0.1415 0.6182 -0.7732
vn -0.0787 0.3470 -0.9345
vn -0.7191 0.4266 -0.5485
vn -0.5698 0.6787 -0.4633
vn -0.9066 0.3582 0.2230
vn -0.7265 0.6716 0.1454
vn -0.5429 0.3515 0.7627
vn -0.4321 0.6508 0.6244
vn 0.2201 0.3998 0.8898
vn 0.1832 0.6301 0.7546
vn 0.8492 0.3672 0.3796
vn 0.7508 0.5782 0.3192
vn 0.8260 0.4768 -0.3006
vn 0.9561 0.2857 -0.0650
vn 0.9185 0.3600 -0.1637
vn 0.8889 0.3304 -0.3172
vn 0.4919 0.3520 -0.7963
vn 0.8850 0.3719 -0.2803
vn -0.5578 0.7168 -0.4184
vn -0.7190 0.6850 0.1176
vn -0.8123 0.5730 0.1087
vn -0.6501 0.5992 -0.4672
vn -0.1141 0.5525 -0.8256
vn 0.4071 0.5169 -0.7531
vn -0.5379 0.7210 -0.4369
vn -0.1251 0.8048 -0.5802
vn -0.5828 0.8117 0.0392
vn -0.5026 0.5817 0.6395
vn -0.3221 0.8483 0.4203
vn 0.1598 0.6317 0.7586
vn 0.1646 0.8268 0.5379
vn 0.7060 0.6217 0.3391
vn 0.6434 0.7099 0.2866
vn 0.6332 0.7709 -0.0694
vn 0.4094 0.8015 -0.4358
vn -0.2866 0.9317 -0.2232
vn 0.0287 0.9996 -0.0074
vn 0.3571 0.9180 0.1723
vn -0.0134 0.3351 -0.9421
vn 0.5343 0.2731 -0.7999
vn 0.5131 0.5010 -0.6970
vn 0.1662 0.2703 -0.9483
vn -0.4832 0.2061 0.8509
vn -0.8979 0.2381 0.3702
vn -0.4202 0.2385 0.8755
vn 0.2335 0.1980 0.9520
vn 0.8907 0.3942 -0.2264
vn 0.3529 0.9218 0.1606
vn 0.5514 0.7013 -0.4518
vn 0.8205 0.4517 -0.3503
vn 0.8540 0.3190 -0.4111
vn 0.8322 0.5087 -0.2205
vn 0.7670 0.3555 0.5342
vn 0.1233 0.4834 -0.8667
vn 0.5443 0.5087 -0.6670
vn 0.5596 0.2591 -0.7872
vn 0.1043 0.1858 -0.9770
vn -0.3773 0.5014 0.7786
vn -0.8212 0.4052 0.4018
vn -0.8784 0.2896 0.3801
vn -0.4252 0.2640 0.8657
vn -0.2658 0.6631 0.6997
vn 0.4070 0.5560 -0.7247
vn 0.9214 0.2588 -0.2899
vn 0.8534 0.4175 -0.3121
vn 0.8354 0.4977 -0.2334
vn 0.2958 0.9522 0.0765
vn -0.3997 0.4057 -0.8220
vn -0.9183 0.3105 -0.2457
vn -0.8366 0.3204 -0.4443
vn 0.9240 0.2829 -0.2573
vn -0.9403 0.2336 0.2475
vn 0.1817 0.7275 0.6616
vn 0.6829 0.6909 0.2374
vn -0.3865 0.7394 0.5513
vn -0.8071 0.5009 -0.3125
vn 0.9270 0.3162 -0.2016
vn 0.5398 0.7984 0.2667
vn 0.2104 0.8011 0.5604
vn -0.2901 0.7289 0.6201
vn 0.7028 0.4035 0.5859
vn 0.7982 0.1753 -0.5763
vn -0.3476 -0.4025 0.8469
vn -0.4538 0.2398 0.8583
vn 0.4114 0.1631 -0.8968
vn 0.3927 0.4216 -0.8173
vn 0.2869 0.4083 0.8666
vn -0.4219 0.3491 0.8367
vn -0.2511 -0.8063 0.5355
vn 0.6039 -0.7503 0.2691
vn 0.5961 -0.8029 -0.0017
vn 0.5383 -0.7434 -0.3971
vn 0.7253 -0.4469 -0.5237
vn 0.2640 -0.7724 -0.5776
vn 0.3735 -0.4412 -0.8160
vn 0.2584 -0.8260 -0.5010
vn 0.4184 -0.5371 -0.7324
vn 0.3776 -0.7837 -0.4932
vn 0.5522 -0.4112 -0.7253
vn 0.1156 -0.4753 -0.8722
vn 0.1403 -0.7139 -0.6860
vn -0.2870 -0.8687 -0.4037
vn -0.3289 -0.6059 -0.7244
vn -0.8088 -0.4309 0.4002
vn -0.5339 -0.8153 0.2240
vn 0.1379 0.3329 -0.9328
vn -0.9006 0.1522 0.4072
vn -0.9210 0.3483 -0.1747
vn 0.4105 0.2206 -0.8848
vn -0.4973 -0.8606 -0.1100
vn -0.8141 -0.5560 -0.1680
vn -0.3886 0.4322 -0.8138
vn -0.4825 0.0744 -0.8727
vn -0.3737 0.5062 -0.7773
vn -0.9490 0.1191 -0.2918
# 137 vertex normals

vt 0.1320 0.8751 0.0000
vt 0.0690 0.7749 0.0000
vt 0.0876 0.7605 0.0000
vt 0.1445 0.8592 0.0000
vt 0.2687 0.7949 0.0000
vt 0.2367 0.7437 0.0000
vt 0.3057 0.7812 0.0000
vt 0.3048 0.9630 0.0000
vt 0.2309 0.9374 0.0000
vt 0.2347 0.9181 0.0000
vt 0.3024 0.9462 0.0000
vt 0.2648 0.5421 0.0000
vt 0.2700 0.5612 0.0000
vt 0.2460 0.5762 0.0000
vt 0.2290 0.5694 0.0000
vt 0.1290 0.5481 0.0000
vt 0.1837 0.5590 0.0000
vt 0.1474 0.6755 0.0000
vt 0.0840 0.6648 0.0000
vt 0.4050 0.6524 0.0000
vt 0.4078 0.6407 0.0000
vt 0.4253 0.6494 0.0000
vt 0.4169 0.6579 0.0000
vt 0.4339 0.6368 0.0000
vt 0.4557 0.6656 0.0000
vt 0.4427 0.6674 0.0000
vt 0.4413 0.7039 0.0000
vt 0.4293 0.6950 0.0000
vt 0.4020 0.7276 0.0000
vt 0.4021 0.7119 0.0000
vt 0.3602 0.7232 0.0000
vt 0.3777 0.7042 0.0000
vt 0.3359 0.6843 0.0000
vt 0.3631 0.6802 0.0000
vt 0.3960 0.6670 0.0000
vt 0.3886 0.6569 0.0000
vt 0.3914 0.6552 0.0000
vt 0.3810 0.6222 0.0000
vt 0.4091 0.6251 0.0000
vt 0.3886 0.6443 0.0000
vt 0.4283 0.6696 0.0000
vt 0.4193 0.6872 0.0000
vt 0.4103 0.6803 0.0000
vt 0.4131 0.6726 0.0000
vt 0.4083 0.6660 0.0000
vt 0.4036 0.6644 0.0000
vt 0.4082 0.6732 0.0000
vt 0.4051 0.6705 0.0000
vt 0.4058 0.6774 0.0000
vt 0.4027 0.6854 0.0000
vt 0.4019 0.6791 0.0000
vt 0.3945 0.6838 0.0000
vt 0.3985 0.6793 0.0000
vt 0.3901 0.6765 0.0000
vt 0.3954 0.6758 0.0000
vt 0.3987 0.6720 0.0000
vt 0.4020 0.6704 0.0000
vt 0.4055 0.6738 0.0000
vt 0.4020 0.6746 0.0000
vt 0.3983 0.6755 0.0000
vt 0.4555 0.6037 0.0000
vt 0.4113 0.5868 0.0000
vt 0.4198 0.5387 0.0000
vt 0.4857 0.5577 0.0000
vt 0.3937 0.7654 0.0000
vt 0.4843 0.7636 0.0000
vt 0.3899 0.7945 0.0000
vt 0.3386 0.7467 0.0000
vt 0.3212 0.6234 0.0000
vt 0.2552 0.6814 0.0000
vt 0.3003 0.5642 0.0000
vt 0.3196 0.5780 0.0000
vt 0.3632 0.5904 0.0000
vt 0.3452 0.6031 0.0000
vt 0.3021 0.6946 0.0000
vt 0.4978 0.5429 0.0000
vt 0.4231 0.5129 0.0000
vt 0.4379 0.4821 0.0000
vt 0.5174 0.5248 0.0000
vt 0.3897 0.8304 0.0000
vt 0.5052 0.7858 0.0000
vt 0.5288 0.8052 0.0000
vt 0.3997 0.8691 0.0000
vt 0.3892 0.8117 0.0000
vt 0.3045 0.8217 0.0000
vt 0.4214 0.5251 0.0000
vt 0.3039 0.5389 0.0000
vt 0.3500 0.6436 0.0000
vt 0.3735 0.6556 0.0000
vt 0.3838 0.6616 0.0000
vt 0.2187 0.6824 0.0000
vt 0.5272 0.6060 0.0000
vt 0.5316 0.6744 0.0000
vt 0.4876 0.6656 0.0000
vt 0.3668 0.6288 0.0000
vt 0.4702 0.7264 0.0000
vt 0.3856 0.6925 0.0000
vt 0.3771 0.6768 0.0000
vt 0.4019 0.6984 0.0000
vt 0.5520 0.6740 0.0000
vt 0.3831 0.6481 0.0000
vt 0.1989 0.6918 0.0000
vt 0.2155 0.7755 0.0000
vt 0.2630 0.8195 0.0000
vt 0.1492 0.7256 0.0000
vt 0.2037 0.5392 0.0000
vt 0.4102 0.9148 0.0000
vt 0.3020 0.8755 0.0000
vt 0.2508 0.5047 0.0000
vt 0.3009 0.5194 0.0000
vt 0.1836 0.8105 0.0000
vt 0.2482 0.8638 0.0000
vt 0.4220 0.9294 0.0000
vt 0.0560 0.6751 0.0000
vt 0.0984 0.5569 0.0000
vt 0.1546 0.4802 0.0000
vt 0.1691 0.4957 0.0000
vt 0.2105 0.4397 0.0000
vt 0.2278 0.4583 0.0000
vt 0.2629 0.4163 0.0000
vt 0.2728 0.4302 0.0000
vt 0.4467 0.4291 0.0000
vt 0.4443 0.4493 0.0000
vt 0.5306 0.5099 0.0000
vt 0.5343 0.4933 0.0000
vt 0.6008 0.5820 0.0000
vt 0.5805 0.5790 0.0000
vt 0.5520 0.8321 0.0000
vt 0.5647 0.8385 0.0000
vt 0.4908 0.5517 0.0000
vt 0.4943 0.7743 0.0000
vt 0.5442 0.6756 0.0000
vt 0.2899 0.4792 0.0000
vt 0.6281 0.7017 0.0000
vt 0.6101 0.6934 0.0000
vt 0.5350 0.6021 0.0000
vt 0.5616 0.5891 0.0000
vt 0.5424 0.5984 0.0000
vt 0.5767 0.6791 0.0000
# 139 texture coords

o Grass_free_High_Mountain_01
g Grass_free_High_Mountain_01
usemtl 01___Default
s 1
f 1/1/1 2/2/2 3/3/3 4/4/4 
f 5/5/5 6/6/6 7/7/7 
f 8/8/8 9/9/9 10/10/10 11/11/11 
s 2
f 9/9/9 1/1/1 4/4/4 10/10/10 
f 12/12/12 13/13/13 14/14/14 15/15/15 
s 4
f 16/16/16 17/17/17 18/18/18 19/19/19 
s 1
f 20/20/20 21/21/21 22/22/22 23/23/23 
s 2
f 24/24/24 25/25/25 26/26/26 22/22/22 
s 4
f 25/25/25 27/27/27 28/28/28 26/26/26 
f 27/27/27 29/29/29 30/30/30 28/28/28 
s 2
f 29/29/29 31/31/31 32/32/32 30/30/30 
f 31/31/31 33/33/33 34/34/34 32/32/32 
f 35/35/35 36/36/36 37/37/37 
s 4
f 38/38/38 39/39/39 21/21/21 40/40/40 
s 1
f 41/41/41 42/42/42 43/43/43 44/44/44 
f 45/45/45 46/46/46 20/20/20 23/23/23 
s 2
f 45/45/45 44/44/44 47/47/47 48/48/48 
s 4
f 44/44/44 43/43/43 49/49/49 47/47/47 
s 2
f 43/43/43 50/50/50 51/51/51 49/49/49 
s 4
f 50/50/50 52/52/52 53/53/53 51/51/51 
s 2
f 52/52/52 54/54/54 55/55/55 53/53/53 
s 4
f 54/54/54 35/35/35 56/56/56 55/55/55 
s 8
f 35/35/35 46/46/46 57/57/57 56/56/56 
s 4
f 46/46/46 45/45/45 48/48/48 57/57/57 
s 1
f 49/49/49 58/58/58 47/47/47 
s 16
f 59/59/59 51/51/51 53/53/53 60/60/60 
f 59/59/59 60/60/60 56/56/56 57/57/57 
f 59/59/59 58/58/58 49/49/49 51/51/51 
f 59/59/59 57/57/57 48/48/48 58/58/58 
f 60/60/60 55/55/55 56/56/56 
s 1
f 61/61/61 62/62/62 63/63/63 64/64/64 
s 2
f 65/65/65 66/66/66 67/67/67 
s 8
f 65/65/65 67/67/67 68/68/68 
s 4
f 69/69/69 70/70/70 71/71/71 72/72/72 
s 1
f 73/73/73 38/38/38 74/74/74 
s 8
f 75/75/75 68/68/68 7/7/7 70/70/70 
s 1
f 76/76/76 77/77/77 78/78/78 79/79/79 
s 2
f 80/80/80 81/81/81 82/82/82 83/83/83 
s 8
f 7/7/7 84/84/67 80/80/80 85/85/84 
s 4
f 86/86/63 71/71/71 87/87/85 
s 8
f 68/68/68 67/67/67 7/7/7 
s 4
f 62/62/62 39/39/39 38/38/38 73/73/73 
f 75/75/75 70/70/70 69/69/69 
s 16
f 33/33/33 88/88/86 89/89/87 34/34/34 
f 90/90/88 36/36/36 35/35/35 
s 1
f 91/91/89 70/70/70 6/6/6 
f 13/13/13 91/91/89 14/14/14 
s 8
f 71/71/71 13/13/13 12/12/12 87/87/85 
s 1
f 70/70/70 91/91/89 13/13/13 71/71/71 
f 61/61/61 64/64/64 92/92/90 
s 2
f 93/93/91 94/94/92 92/92/90 
s 1
f 92/92/90 94/94/92 61/61/61 
s 32
f 68/68/68 31/31/31 29/29/29 65/65/65 
f 69/69/69 74/74/74 95/95/93 88/88/86 
f 38/38/38 95/95/93 74/74/74 
f 75/75/75 33/33/33 31/31/31 68/68/68 
f 69/69/69 88/88/86 33/33/33 75/75/75 
s 8
f 61/61/61 24/24/24 39/39/39 62/62/62 
f 94/94/92 25/25/25 24/24/24 61/61/61 
s 4
f 94/94/92 96/96/94 27/27/27 25/25/25 
f 65/65/65 29/29/29 27/27/27 96/96/94 
s 1
f 54/54/54 52/52/52 97/97/95 98/98/96 
f 35/35/35 37/37/37 20/20/20 46/46/46 
f 50/50/50 43/43/43 42/42/42 99/99/97 
f 52/52/52 50/50/50 99/99/97 97/97/95 
f 44/44/44 45/45/45 23/23/23 41/41/41 
f 35/35/35 54/54/54 98/98/96 90/90/88 
s 2
f 81/81/81 100/100/98 82/82/82 
f 96/96/94 66/66/66 65/65/65 
f 96/96/94 94/94/92 93/93/91 66/66/66 
f 21/21/21 39/39/39 24/24/24 22/22/22 
s 1
f 26/26/26 41/41/41 23/23/23 22/22/22 
f 28/28/28 42/42/42 41/41/41 26/26/26 
f 30/30/30 99/99/97 42/42/42 28/28/28 
s 8
f 32/32/32 97/97/95 99/99/97 30/30/30 
f 34/34/34 98/98/96 97/97/95 32/32/32 
s 2
f 101/101/99 95/95/93 38/38/38 40/40/40 
s 8
f 21/21/21 20/20/20 37/37/37 40/40/40 
s 16
f 89/89/87 90/90/88 98/98/96 34/34/34 
f 89/89/87 88/88/86 95/95/93 101/101/99 
s 1
f 102/102/100 91/91/89 6/6/6 103/103/101 
s 16
f 104/104/102 5/5/5 7/7/7 85/85/84 
s 1
f 103/103/101 6/6/6 5/5/5 104/104/102 
s 4
f 102/102/100 105/105/103 18/18/18 
s 2
f 15/15/15 17/17/17 106/106/104 
s 4
f 15/15/15 14/14/14 91/91/89 102/102/100 
s 8
f 107/107/105 11/11/11 108/108/106 
s 2
f 15/15/15 106/106/104 109/109/107 12/12/12 
s 8
f 12/12/12 110/110/108 87/87/85 
s 4
f 87/87/85 110/110/108 77/77/77 86/86/63 
f 3/3/3 105/105/103 111/111/109 4/4/4 
s 16
f 10/10/10 112/112/110 108/108/106 11/11/11 
s 4
f 4/4/4 111/111/109 112/112/110 10/10/10 
f 107/107/105 113/113/111 8/8/8 11/11/11 
s 1
f 3/3/3 2/2/2 114/114/112 19/19/19 
f 19/19/19 114/114/112 115/115/113 16/16/16 
s 16
f 16/16/16 115/115/113 116/116/114 117/117/115 
f 117/117/115 116/116/114 118/118/116 119/119/117 
s 1
f 119/119/117 118/118/116 120/120/118 121/121/119 
s 2
f 121/121/119 120/120/118 122/122/120 123/123/121 
s 1
f 123/123/121 122/122/120 124/124/122 
s 4
f 122/122/120 125/125/123 124/124/122 
s 2
f 124/124/122 125/125/123 126/126/124 127/127/125 
f 128/128/126 129/129/127 113/113/111 107/107/105 
s 1
f 64/64/64 63/63/63 130/130/128 
s 2
f 67/67/67 66/66/66 131/131/129 84/84/67 
s 1
f 130/130/128 63/63/63 86/86/63 
s 2
f 81/81/81 80/80/80 84/84/67 131/131/129 
f 100/100/98 81/81/81 131/131/129 132/132/130 
f 66/66/66 93/93/91 132/132/130 131/131/129 
s 8
f 12/12/12 109/109/107 133/133/131 110/110/108 
s 4
f 110/110/108 133/133/131 78/78/78 77/77/77 
s 1
f 74/74/74 72/72/72 73/73/73 
s 4
f 73/73/73 72/72/72 71/71/71 63/63/63 
f 73/73/73 63/63/63 62/62/62 
s 1
f 74/74/74 69/69/69 72/72/72 
f 70/70/70 7/7/7 6/6/6 
f 86/86/63 77/77/77 76/76/76 130/130/128 
s 4
f 71/71/71 86/86/63 63/63/63 
s 8
f 67/67/67 84/84/67 7/7/7 
f 80/80/80 83/83/83 108/108/106 85/85/84 
s 16
f 90/90/88 89/89/87 101/101/99 36/36/36 
s 2
f 36/36/36 101/101/99 40/40/40 37/37/37 
s 1
f 58/58/58 48/48/48 47/47/47 
s 16
f 60/60/60 53/53/53 55/55/55 
s off
f 134/134/132 129/129/127 128/128/126 135/135/133 
f 64/64/64 130/130/128 136/136/134 92/92/90 
f 76/76/76 79/79/79 137/137/135 138/138/136 
f 130/130/128 76/76/76 138/138/136 136/136/134 
f 135/135/133 128/128/126 82/82/82 139/139/137 
f 92/92/90 136/136/134 132/132/130 93/93/91 
f 136/136/134 138/138/136 100/100/98 132/132/130 
f 100/100/98 138/138/136 137/137/135 139/139/137 
f 135/135/133 127/127/125 126/126/124 134/134/132 
s 4
f 17/17/17 15/15/15 102/102/100 18/18/18 
s 1
f 78/78/78 123/123/121 124/124/122 79/79/79 
s 2
f 82/82/82 128/128/126 107/107/105 83/83/83 
s 4
f 105/105/103 3/3/3 19/19/19 18/18/18 
s 2
f 17/17/17 16/16/16 117/117/115 106/106/104 
f 106/106/104 117/117/115 119/119/117 109/109/107 
s 4
f 105/105/103 102/102/100 103/103/101 111/111/109 
s 16
f 112/112/110 104/104/102 85/85/84 108/108/106 
s 4
f 111/111/109 103/103/101 104/104/102 112/112/110 
s 8
f 109/109/107 119/119/117 121/121/119 133/133/131 
s 4
f 133/133/131 121/121/119 123/123/121 78/78/78 
s 8
f 83/83/83 107/107/105 108/108/106 
s off
f 79/79/79 124/124/122 127/127/125 137/137/135 
f 82/82/82 100/100/98 139/139/137 
f 137/137/135 127/127/125 135/135/133 139/139/137 
# 112 polygons - 37 triangles

