# 3ds Max Wavefront OBJ Exporter v0.99 - (c)2007 guruware
# File Created: 06.06.2022 18:16:04

mtllib GrassFreeHighMountain03.mtl

#
# object Grass_free_High_Mountain_03
#

v  5.1536 0.0034 -1.6862
v  5.8426 -0.0000 -2.0170
v  4.3487 2.1745 -2.3252
v  3.4615 2.1745 -1.5843
v  1.4053 2.2039 -4.9823
v  4.3005 2.1745 -4.9976
v  3.9404 -0.0000 -6.8001
v  1.7688 -0.0000 -6.3743
v  5.1410 1.0872 -5.4907
v  6.2538 -0.0000 -4.3256
v  5.4519 -0.0000 -6.6710
v  3.1608 2.8158 1.9886
v  0.3097 2.7539 2.6047
v  0.4401 0.0036 4.0957
v  3.8806 0.0017 2.7765
v  3.2846 2.7702 -0.6187
v  5.5537 0.0034 -1.0927
v  -1.3892 2.7539 2.6083
v  -1.2386 0.0037 3.8780
v  -0.9634 2.7539 2.2511
v  -0.7825 0.0037 -8.4669
v  -1.0984 2.7539 -6.4730
v  -0.3364 2.7539 -5.7456
v  1.0615 0.0037 -7.2439
v  0.4875 2.7539 -5.6414
v  -8.0944 2.7539 -1.7932
v  -7.9690 2.7539 -4.4220
v  -8.9382 0.0037 -5.0957
v  -7.0585 0.0037 -5.2435
v  -6.3281 2.7539 -4.5255
v  -4.8803 2.7539 -3.9769
v  -5.3719 0.0037 -4.7392
v  -5.4657 2.7539 2.0145
v  -5.7330 1.8843 2.4804
v  -5.0712 0.0037 3.8780
v  -4.2425 2.7539 2.6083
v  0.0624 2.7553 -3.3147
v  -4.4619 2.7539 -6.4490
v  -4.7773 0.0037 -8.1292
v  -7.7886 2.7539 -1.3357
v  -8.8814 0.9444 -0.9014
v  -8.1341 2.7539 -0.4086
v  -9.1051 0.0037 -0.9014
v  -7.5612 0.0037 3.4308
v  -6.6919 2.7539 2.2331
v  -6.3162 0.0037 3.6544
v  -0.3327 0.0037 3.8780
v  -0.3027 2.7539 2.6083
v  -2.5738 4.0554 -2.2063
v  -0.0780 4.0554 -3.0253
v  -2.8632 2.7553 -2.3468
v  -2.8841 2.7553 -0.3712
v  -2.6148 4.1111 -0.4646
v  -0.9955 2.7553 0.9788
v  -0.8550 4.0554 0.6895
v  0.3228 2.7553 0.8324
v  0.5584 3.9848 0.5285
v  2.2869 2.7627 -0.2873
v  2.0046 2.7552 -1.3925
v  1.8020 4.0554 -0.0855
v  1.3482 4.1109 -1.7987
v  2.5687 3.8495 1.1217
v  3.0691 2.7593 -1.5493
v  0.9280 3.8497 1.2837
# 64 vertices

vn 0.7555 0.6099 0.2395
vn 0.7292 0.5398 0.4205
vn 0.4695 0.8275 0.3078
vn 0.6432 0.7597 -0.0958
vn 0.4906 0.6854 -0.5381
vn 0.3184 0.8296 -0.4586
vn 0.0370 0.6740 -0.7378
vn 0.3017 0.5448 -0.7824
vn 0.5448 0.7089 -0.4480
vn 0.7916 0.6095 -0.0445
vn 0.4072 0.7053 -0.5803
vn 0.5840 0.5837 0.5641
vn -0.0633 0.7335 0.6767
vn 0.0687 0.4297 0.9003
vn 0.6194 0.4828 0.6190
vn 0.6110 0.7790 -0.1407
vn 0.8200 0.5602 -0.1175
vn 0.2251 0.7866 0.5750
vn 0.0323 0.4634 0.8855
vn 0.0340 0.9350 0.3530
vn 0.2151 0.5885 -0.7793
vn 0.2081 0.8388 -0.5032
vn 0.1699 0.9190 -0.3557
vn 0.5317 0.5430 -0.6500
vn 0.3009 0.8200 -0.4869
vn -0.5889 0.8001 0.1138
vn -0.4715 0.7297 -0.4953
vn -0.6711 0.3871 -0.6323
vn 0.0899 0.2348 -0.9679
vn 0.1089 0.7409 -0.6627
vn -0.1541 0.9546 -0.2548
vn -0.4837 0.2966 -0.8235
vn -0.0768 0.8994 0.4304
vn -0.1239 0.4681 0.8750
vn -0.1251 0.4911 0.8621
vn -0.1045 0.8207 0.5617
vn 0.1063 0.8877 -0.4479
vn -0.5035 0.7554 -0.4193
vn -0.5152 0.5117 -0.6875
vn -0.3525 0.9343 0.0532
vn -0.9381 0.3233 0.1246
vn -0.6381 0.7678 0.0576
vn -0.9443 0.3005 0.1344
vn -0.5081 0.4886 0.7093
vn -0.2689 0.7742 0.5729
vn -0.1469 0.5562 0.8180
vn -0.1014 0.4696 0.8771
vn -0.1980 0.8001 0.5663
vn -0.5797 0.6820 -0.4459
vn 0.1394 0.6748 -0.7247
vn -0.3437 0.9063 -0.2460
vn -0.4246 0.8797 0.2143
vn -0.6161 0.7181 0.3237
vn -0.1294 0.8544 0.5032
vn -0.1382 0.7314 0.6678
vn -0.4952 0.6808 0.5397
vn -0.1635 0.9251 0.3427
vn 0.2604 0.6717 -0.6936
vn 0.4577 0.8590 -0.2293
vn 0.3652 0.9196 -0.1450
vn 0.5407 0.7492 -0.3826
vn 0.4574 0.8492 0.2640
vn 0.4585 0.8655 -0.2017
vn -0.1557 0.8798 0.4491
# 64 vertex normals

vt 0.0405 0.2520 0.0000
vt 0.0238 0.2331 0.0000
vt 0.1089 0.2120 0.0000
vt 0.1310 0.2431 0.0000
vt 0.5579 0.8233 0.0000
vt 0.7001 0.8923 0.0000
vt 0.6740 0.9302 0.0000
vt 0.5679 0.9380 0.0000
vt 0.1729 0.0633 0.0000
vt 0.0489 0.0440 0.0000
vt 0.1098 0.0040 0.0000
vt 0.0524 0.1129 0.0000
vt 0.0064 0.1576 0.0000
vt 0.0120 0.0767 0.0000
vt 0.0995 0.1244 0.0000
vt 0.3597 0.2787 0.0000
vt 0.2931 0.3045 0.0000
vt 0.2731 0.2704 0.0000
vt 0.3439 0.2437 0.0000
vt 0.4531 0.3500 0.0000
vt 0.4508 0.4755 0.0000
vt 0.3969 0.4776 0.0000
vt 0.3893 0.3542 0.0000
vt 0.8612 0.3356 0.0000
vt 0.9441 0.2843 0.0000
vt 0.8669 0.3526 0.0000
vt 0.2208 0.0427 0.0000
vt 0.2704 0.1405 0.0000
vt 0.2471 0.1651 0.0000
vt 0.1671 0.0893 0.0000
vt 0.2231 0.1768 0.0000
vt 0.1848 0.1897 0.0000
vt 0.1431 0.1162 0.0000
vt 0.6286 0.1311 0.0000
vt 0.5498 0.1005 0.0000
vt 0.5652 0.0055 0.0000
vt 0.5053 0.0146 0.0000
vt 0.4976 0.1086 0.0000
vt 0.4494 0.1207 0.0000
vt 0.4502 0.0277 0.0000
vt 0.7774 0.2301 0.0000
vt 0.7992 0.2055 0.0000
vt 0.8741 0.1830 0.0000
vt 0.8091 0.2602 0.0000
vt 0.4734 0.7995 0.0000
vt 0.4441 0.8161 0.0000
vt 0.5048 0.7272 0.0000
vt 0.3712 0.1014 0.0000
vt 0.3428 0.0013 0.0000
vt 0.6424 0.1422 0.0000
vt 0.6794 0.0834 0.0000
vt 0.6736 0.1481 0.0000
vt 0.6908 0.0545 0.0000
vt 0.8237 0.1192 0.0000
vt 0.7581 0.1951 0.0000
vt 0.8489 0.1511 0.0000
vt 0.9614 0.3077 0.0000
vt 0.8852 0.3683 0.0000
vt 0.5126 0.1854 0.0000
vt 0.3947 0.1951 0.0000
vt 0.3798 0.1367 0.0000
vt 0.5181 0.1253 0.0000
vt 0.6054 0.1424 0.0000
vt 0.5892 0.2027 0.0000
vt 0.7024 0.1814 0.0000
vt 0.6778 0.2365 0.0000
vt 0.7534 0.2126 0.0000
vt 0.7340 0.2673 0.0000
vt 0.2173 0.1990 0.0000
vt 0.2631 0.1758 0.0000
vt 0.2423 0.2567 0.0000
vt 0.3149 0.2234 0.0000
vt 0.8723 0.0064 0.0000
vt 0.8832 0.1732 0.0000
vt 0.8335 0.1108 0.0000
vt 0.5095 0.3553 0.0000
vt 0.5041 0.4754 0.0000
vt 0.9551 0.1953 0.0000
vt 0.9832 0.1435 0.0000
vt 0.9463 0.0073 0.0000
vt 0.9923 0.0838 0.0000
vt 0.9796 0.3260 0.0000
vt 0.8973 0.3838 0.0000
vt 0.0248 0.2581 0.0000
vt 0.1071 0.2909 0.0000
vt 0.0101 0.2758 0.0000
vt 0.1141 0.3272 0.0000
vt 0.1279 0.2998 0.0000
vt 0.9126 0.4102 0.0000
vt 0.8509 0.4910 0.0000
vt 0.8722 0.4069 0.0000
vt 0.2781 0.3586 0.0000
vt 0.2464 0.3160 0.0000
vt 0.2731 0.5730 0.0000
vt 0.4363 0.6128 0.0000
vt 0.2766 0.6044 0.0000
vt 0.4175 0.5098 0.0000
vt 0.3749 0.5186 0.0000
vt 0.4998 0.8027 0.0000
vt 0.6118 0.6959 0.0000
vt 0.5750 0.6763 0.0000
vt 0.5974 0.6506 0.0000
vt 0.6258 0.6687 0.0000
vt 0.4215 0.6743 0.0000
vt 0.3462 0.7091 0.0000
vt 0.2970 0.7148 0.0000
vt 0.5060 0.5320 0.0000
vt 0.5055 0.5857 0.0000
vt 0.5164 0.5465 0.0000
vt 0.5452 0.6005 0.0000
vt 0.3385 0.5023 0.0000
vt 0.3399 0.7891 0.0000
vt 0.2469 0.6988 0.0000
vt 0.2636 0.6162 0.0000
vt 0.3163 0.3448 0.0000
vt 0.3761 0.3145 0.0000
vt 0.5397 0.5405 0.0000
vt 0.5587 0.5454 0.0000
vt 0.3084 0.3611 0.0000
vt 0.3298 0.4867 0.0000
vt 0.2061 0.5071 0.0000
vt 0.1682 0.4018 0.0000
# 122 texture coords

o Grass_free_High_Mountain_03
g Grass_free_High_Mountain_03
usemtl Material__25
s off
f 1/1/1 2/2/2 3/3/3 4/4/4 
f 5/5/5 4/6/4 3/7/3 6/8/6 
f 5/9/5 7/10/7 8/11/8 
f 9/12/9 10/13/10 11/14/11 
f 2/2/2 10/13/10 3/3/3 
f 3/3/3 10/13/10 9/12/9 6/15/6 
f 5/9/5 6/15/6 9/12/9 
f 5/9/5 9/12/9 11/14/11 7/10/7 
f 12/16/12 13/17/13 14/18/14 15/19/15 
f 16/20/16 12/21/12 15/22/15 17/23/17 
f 18/24/18 19/25/19 20/26/20 
f 21/27/21 22/28/22 23/29/23 
f 24/30/24 25/31/25 5/32/5 8/33/8 
f 26/34/26 27/35/27 28/36/28 
f 29/37/29 30/38/30 31/39/31 32/40/32 
f 33/41/33 34/42/34 35/43/35 36/44/36 
f 23/45/23 22/46/22 37/47/37 
f 32/40/32 31/39/31 38/48/38 39/49/39 
f 39/49/39 38/48/38 22/28/22 21/27/21 
f 40/50/40 41/51/41 42/52/42 
f 26/34/26 41/51/41 40/50/40 
f 42/52/42 41/51/41 43/53/43 44/54/44 
f 42/52/42 44/54/44 45/55/45 
f 26/34/26 28/36/28 43/53/43 41/51/41 
f 44/54/44 34/42/34 33/41/33 45/55/45 
f 44/54/44 46/56/46 34/42/34 
f 35/43/35 34/42/34 46/56/46 
f 36/44/36 35/43/35 19/25/19 18/24/18 
f 20/26/20 47/57/47 48/58/48 
f 20/26/20 19/25/19 47/57/47 
f 24/30/24 23/29/23 25/31/25 
f 24/30/24 21/27/21 23/29/23 
f 49/59/49 50/60/50 37/61/37 51/62/51 
f 51/62/51 52/63/52 53/64/53 49/59/49 
f 52/63/52 54/65/54 55/66/55 53/64/53 
f 54/65/54 56/67/56 57/68/57 55/66/55 
f 58/69/58 59/70/59 60/71/60 
f 59/70/59 37/61/37 50/60/50 61/72/61 
f 49/73/49 61/74/61 50/75/50 
f 60/71/60 59/70/59 61/72/61 
f 27/35/27 30/38/30 29/37/29 28/36/28 
f 16/20/16 60/76/60 62/77/62 
f 16/20/16 62/77/62 12/21/12 
f 60/78/60 61/74/61 49/73/49 
f 57/79/57 49/73/49 53/80/53 55/81/55 
f 60/78/60 49/73/49 57/79/57 
f 14/82/14 13/83/13 48/58/48 47/57/47 
f 1/84/1 4/85/4 17/86/17 
f 16/87/16 17/86/17 4/85/4 
f 16/87/16 4/85/4 63/88/63 
f 4/85/4 5/32/5 25/31/25 63/88/63 
f 60/89/60 16/90/16 58/91/58 
f 13/17/13 57/92/57 56/93/56 
f 42/94/42 52/95/52 40/96/40 
f 36/97/36 52/95/52 33/98/33 
f 23/45/23 37/47/37 25/99/25 
f 63/100/63 59/101/59 58/102/58 16/103/16 
f 51/104/51 31/105/31 30/106/30 52/95/52 
f 25/99/25 37/47/37 59/101/59 63/100/63 
f 18/107/18 54/108/54 52/95/52 36/97/36 
f 54/108/54 18/107/18 20/109/20 56/110/56 
f 33/98/33 52/95/52 45/111/45 
f 45/111/45 52/95/52 42/94/42 
f 51/104/51 38/112/38 31/105/31 
f 37/47/37 22/46/22 38/112/38 51/104/51 
f 27/113/27 52/95/52 30/106/30 
f 26/114/26 40/96/40 52/95/52 27/113/27 
f 64/115/64 13/17/13 12/16/12 62/116/62 
f 64/115/64 57/92/57 13/17/13 
f 56/110/56 20/109/20 48/117/48 13/118/13 
f 60/119/60 57/120/57 64/121/64 62/122/62 
# 34 polygons - 37 triangles

