# This file uses centimeters as units for non-parametric coordinates.

g default
v -3.272068 0.000000 3.085167
v 3.272069 0.000000 3.085167
v -3.272068 2.229183 3.085167
v 3.272069 2.229183 3.085167
v -3.272068 2.229183 -3.085167
v 3.272069 2.229183 -3.085167
v -3.272068 0.000000 -3.085167
v 3.272069 0.000000 -3.085167
v -2.283288 2.229183 2.152866
v 2.283288 2.229183 2.152866
v 2.283288 2.229183 -2.152866
v -2.283288 2.229183 -2.152866
v -2.283288 13.258522 2.152866
v 2.283288 13.258522 2.152866
v 2.283288 13.258522 -2.152866
v -2.283288 13.258522 -2.152866
v -2.574028 13.258522 2.426999
v 2.574028 13.258522 2.426999
v 2.574028 13.258522 -2.427000
v -2.574028 13.258522 -2.427000
v -2.574028 14.866785 2.426999
v 2.574028 14.866785 2.426999
v 2.574028 14.866785 -2.427000
v -2.574028 14.866785 -2.427000
v -2.193928 14.866785 2.068610
v 2.193928 14.866785 2.068610
v 2.193928 14.866785 -2.068611
v -2.193928 14.866785 -2.068611
v -2.193928 15.176750 2.068610
v 2.193928 15.176750 2.068610
v 2.193928 15.176750 -2.068611
v -2.193928 15.176750 -2.068611
v -2.629369 15.176750 2.479179
v 2.629369 15.176750 2.479179
v 2.629369 15.176750 -2.479179
v -2.629369 15.176750 -2.479179
v -2.629369 16.267092 2.479179
v 2.629369 16.267092 2.479179
v 2.629369 16.267092 -2.479179
v -2.629369 16.267092 -2.479179
vt 0.992185 0.007813
vt 0.255107 0.007847
vt 0.517817 0.092063
vt 0.007813 0.092046
vt 0.032014 0.697143
vt 0.540758 0.701677
vt 0.287049 0.697142
vt 0.781944 0.701668
vt 0.759030 0.092053
vt 0.262812 0.092047
vt 0.750970 0.007813
vt 0.510102 0.007832
vt 0.553049 0.129423
vt 0.045171 0.127280
vt 0.300172 0.127278
vt 0.794259 0.129415
vt 0.553078 0.546188
vt 0.045113 0.544046
vt 0.300139 0.544043
vt 0.794270 0.546180
vt 0.542720 0.557175
vt 0.034125 0.554403
vt 0.289152 0.554401
vt 0.783912 0.557166
vt 0.542724 0.617947
vt 0.034117 0.615174
vt 0.289147 0.615172
vt 0.783914 0.617938
vt 0.556267 0.632308
vt 0.048478 0.628718
vt 0.303509 0.628716
vt 0.797456 0.632300
vt 0.556268 0.644021
vt 0.048476 0.640431
vt 0.303508 0.640429
vt 0.797457 0.644013
vt 0.540755 0.660476
vt 0.032020 0.655943
vt 0.287053 0.655941
vt 0.781943 0.660467
vt 0.249028 0.704157
vt 0.447740 0.704157
vt 0.447740 0.891518
vt 0.249028 0.891518
vt 0.241005 0.704175
vt 0.240970 0.951458
vt 0.007813 0.951426
vt 0.007847 0.704143
vt 0.728119 0.701664
vt 0.728116 0.660463
vt 0.712601 0.644010
vt 0.712600 0.632298
vt 0.726142 0.617934
vt 0.726138 0.557163
vt 0.715778 0.546177
vt 0.715749 0.129412
vt 0.750975 0.092047
vt 0.262819 0.007813
vt 0.230731 0.655970
vt 0.230726 0.697171
vt 0.214280 0.640454
vt 0.214281 0.628741
vt 0.228646 0.615201
vt 0.228654 0.554430
vt 0.217670 0.544069
vt 0.217727 0.127304
vt 0.255095 0.092081
vt 0.517811 0.007829
vt 0.969304 0.660462
vt 0.969305 0.701663
vt 0.953790 0.644008
vt 0.953789 0.632296
vt 0.967331 0.617933
vt 0.967330 0.557161
vt 0.956971 0.546175
vt 0.956960 0.129410
vt 0.992188 0.092047
vt 0.007824 0.007813
vt 0.485764 0.655957
vt 0.485761 0.697158
vt 0.469312 0.640442
vt 0.469312 0.628729
vt 0.483676 0.615188
vt 0.483681 0.554417
vt 0.472696 0.544057
vt 0.472729 0.127292
vt 0.510095 0.092066
vt 0.759027 0.007819
vn 0.000000 0.000000 1.000000
vn 0.000000 0.000000 1.000000
vn 0.000000 0.000000 1.000000
vn 0.000000 0.000000 1.000000
vn 0.000000 1.000000 0.000000
vn 0.000000 1.000000 0.000000
vn 0.000000 1.000000 0.000000
vn 0.000000 1.000000 0.000000
vn 0.000000 0.000000 -1.000000
vn 0.000000 0.000000 -1.000000
vn 0.000000 0.000000 -1.000000
vn 0.000000 0.000000 -1.000000
vn 0.000000 -1.000000 0.000000
vn 0.000000 -1.000000 0.000000
vn 0.000000 -1.000000 0.000000
vn 0.000000 -1.000000 0.000000
vn 1.000000 0.000000 0.000000
vn 1.000000 0.000000 0.000000
vn 1.000000 0.000000 0.000000
vn 1.000000 0.000000 0.000000
vn -1.000000 0.000000 0.000000
vn -1.000000 0.000000 0.000000
vn -1.000000 0.000000 0.000000
vn -1.000000 0.000000 0.000000
vn 0.000000 1.000000 -0.000000
vn 0.000000 1.000000 -0.000000
vn 0.000000 1.000000 -0.000000
vn 0.000000 1.000000 -0.000000
vn 0.000000 1.000000 0.000000
vn 0.000000 1.000000 0.000000
vn 0.000000 1.000000 0.000000
vn 0.000000 1.000000 0.000000
vn 0.000000 1.000000 0.000000
vn 0.000000 1.000000 0.000000
vn 0.000000 1.000000 0.000000
vn 0.000000 1.000000 0.000000
vn 0.000000 1.000000 0.000000
vn 0.000000 1.000000 0.000000
vn 0.000000 1.000000 0.000000
vn 0.000000 1.000000 0.000000
vn 0.000000 0.000000 1.000000
vn 0.000000 0.000000 1.000000
vn 0.000000 0.000000 1.000000
vn 0.000000 0.000000 1.000000
vn 1.000000 0.000000 0.000000
vn 1.000000 0.000000 0.000000
vn 1.000000 0.000000 0.000000
vn 1.000000 0.000000 0.000000
vn 0.000000 0.000000 -1.000000
vn 0.000000 0.000000 -1.000000
vn 0.000000 0.000000 -1.000000
vn 0.000000 0.000000 -1.000000
vn -1.000000 0.000000 0.000000
vn -1.000000 0.000000 0.000000
vn -1.000000 0.000000 0.000000
vn -1.000000 0.000000 0.000000
vn 0.000000 -1.000000 0.000002
vn 0.000000 -1.000000 0.000002
vn 0.000000 -1.000000 0.000002
vn 0.000000 -1.000000 0.000002
vn 0.000000 -1.000000 0.000000
vn 0.000000 -1.000000 0.000000
vn 0.000000 -1.000000 0.000000
vn 0.000000 -1.000000 0.000000
vn 0.000000 -1.000000 -0.000002
vn 0.000000 -1.000000 -0.000002
vn 0.000000 -1.000000 -0.000002
vn 0.000000 -1.000000 -0.000002
vn 0.000000 -1.000000 0.000000
vn 0.000000 -1.000000 0.000000
vn 0.000000 -1.000000 0.000000
vn 0.000000 -1.000000 0.000000
vn 0.000000 0.000000 1.000000
vn 0.000000 0.000000 1.000000
vn 0.000000 0.000000 1.000000
vn 0.000000 0.000000 1.000000
vn 1.000000 0.000000 0.000000
vn 1.000000 0.000000 0.000000
vn 1.000000 0.000000 0.000000
vn 1.000000 0.000000 0.000000
vn 0.000000 0.000000 -1.000000
vn 0.000000 0.000000 -1.000000
vn 0.000000 0.000000 -1.000000
vn 0.000000 0.000000 -1.000000
vn -1.000000 0.000000 0.000000
vn -1.000000 0.000000 0.000000
vn -1.000000 0.000000 0.000000
vn -1.000000 0.000000 0.000000
vn 0.000000 1.000000 -0.000001
vn 0.000000 1.000000 -0.000001
vn 0.000000 1.000000 -0.000001
vn 0.000000 1.000000 -0.000001
vn 0.000000 1.000000 0.000000
vn 0.000000 1.000000 0.000000
vn 0.000000 1.000000 0.000000
vn 0.000000 1.000000 0.000000
vn 0.000000 1.000000 -0.000001
vn 0.000000 1.000000 -0.000001
vn 0.000000 1.000000 -0.000001
vn 0.000000 1.000000 -0.000001
vn 0.000000 1.000000 0.000000
vn 0.000000 1.000000 0.000000
vn 0.000000 1.000000 0.000000
vn 0.000000 1.000000 0.000000
vn 0.000000 0.000000 1.000000
vn 0.000000 0.000000 1.000000
vn 0.000000 0.000000 1.000000
vn 0.000000 0.000000 1.000000
vn 1.000000 0.000000 0.000000
vn 1.000000 0.000000 0.000000
vn 1.000000 0.000000 0.000000
vn 1.000000 0.000000 0.000000
vn 0.000000 0.000000 -1.000000
vn 0.000000 0.000000 -1.000000
vn 0.000000 0.000000 -1.000000
vn 0.000000 0.000000 -1.000000
vn -1.000000 0.000000 0.000000
vn -1.000000 0.000000 0.000000
vn -1.000000 0.000000 0.000000
vn -1.000000 0.000000 0.000000
vn 0.000000 -1.000000 0.000000
vn 0.000000 -1.000000 0.000000
vn 0.000000 -1.000000 0.000000
vn 0.000000 -1.000000 0.000000
vn 0.000000 -1.000000 0.000000
vn 0.000000 -1.000000 0.000000
vn 0.000000 -1.000000 0.000000
vn 0.000000 -1.000000 0.000000
vn 0.000000 -1.000000 -0.000002
vn 0.000000 -1.000000 -0.000002
vn 0.000000 -1.000000 -0.000002
vn 0.000000 -1.000000 -0.000002
vn 0.000000 -1.000000 0.000000
vn 0.000000 -1.000000 0.000000
vn 0.000000 -1.000000 0.000000
vn 0.000000 -1.000000 0.000000
vn 0.000000 0.000000 1.000000
vn 0.000000 0.000000 1.000000
vn 0.000000 0.000000 1.000000
vn 0.000000 0.000000 1.000000
vn 1.000000 0.000000 0.000000
vn 1.000000 0.000000 0.000000
vn 1.000000 0.000000 0.000000
vn 1.000000 0.000000 0.000000
vn 0.000000 0.000000 -1.000000
vn 0.000000 0.000000 -1.000000
vn 0.000000 0.000000 -1.000000
vn 0.000000 0.000000 -1.000000
vn -1.000000 0.000000 0.000000
vn -1.000000 0.000000 0.000000
vn -1.000000 0.000000 0.000000
vn -1.000000 0.000000 0.000000
s off
g Remians03
f 1/78/1 2/2/2 4/67/3 3/4/4
f 37/41/5 38/42/6 39/43/7 40/44/8
f 5/87/9 6/10/10 8/58/11 7/12/12
f 7/45/13 8/46/14 2/47/15 1/48/16
f 2/68/17 8/11/18 6/57/19 4/3/20
f 7/88/21 1/1/22 3/77/23 5/9/24
f 3/4/25 4/67/26 10/66/27 9/14/28
f 4/3/29 6/57/30 11/56/31 10/13/32
f 6/10/33 5/87/34 12/86/35 11/15/36
f 5/9/37 3/77/38 9/76/39 12/16/40
f 9/14/41 10/66/42 14/65/43 13/18/44
f 10/13/45 11/56/46 15/55/47 14/17/48
f 11/15/49 12/86/50 16/85/51 15/19/52
f 12/16/53 9/76/54 13/75/55 16/20/56
f 13/18/57 14/65/58 18/64/59 17/22/60
f 14/17/61 15/55/62 19/54/63 18/21/64
f 15/19/65 16/85/66 20/84/67 19/23/68
f 16/20/69 13/75/70 17/74/71 20/24/72
f 17/22/73 18/64/74 22/63/75 21/26/76
f 18/21/77 19/54/78 23/53/79 22/25/80
f 19/23/81 20/84/82 24/83/83 23/27/84
f 20/24/85 17/74/86 21/73/87 24/28/88
f 21/26/89 22/63/90 26/62/91 25/30/92
f 22/25/93 23/53/94 27/52/95 26/29/96
f 23/27/97 24/83/98 28/82/99 27/31/100
f 24/28/101 21/73/102 25/72/103 28/32/104
f 25/30/105 26/62/106 30/61/107 29/34/108
f 26/29/109 27/52/110 31/51/111 30/33/112
f 27/31/113 28/82/114 32/81/115 31/35/116
f 28/32/117 25/72/118 29/71/119 32/36/120
f 29/34/121 30/61/122 34/59/123 33/38/124
f 30/33/125 31/51/126 35/50/127 34/37/128
f 31/35/129 32/81/130 36/79/131 35/39/132
f 32/36/133 29/71/134 33/69/135 36/40/136
f 33/38/137 34/59/138 38/60/139 37/5/140
f 34/37/141 35/50/142 39/49/143 38/6/144
f 35/39/145 36/79/146 40/80/147 39/7/148
f 36/40/149 33/69/150 37/70/151 40/8/152
