# 3ds Max Wavefront OBJ Exporter v0.99 - (c)2007 guruware
# File Created: 06.10.2023 11:40:14

mtllib Cone01.mtl

#
# object Cone01
#

v  5.0000 0.0000 -0.0000
v  4.7553 0.0000 -1.5451
v  28.5317 20.0000 -9.2705
v  30.0000 20.0000 -0.0000
v  4.0451 0.0000 -2.9389
v  24.2705 20.0000 -17.6336
v  2.9389 0.0000 -4.0451
v  17.6336 20.0000 -24.2705
v  1.5451 0.0000 -4.7553
v  9.2705 20.0000 -28.5317
v  -0.0000 0.0000 -5.0000
v  -0.0000 20.0000 -30.0000
v  -1.5451 0.0000 -4.7553
v  -9.2705 20.0000 -28.5317
v  -2.9389 0.0000 -4.0451
v  -17.6336 20.0000 -24.2705
v  -4.0451 0.0000 -2.9389
v  -24.2705 20.0000 -17.6336
v  -4.7553 0.0000 -1.5451
v  -28.5317 20.0000 -9.2705
v  -5.0000 0.0000 0.0000
v  -30.0000 20.0000 0.0000
v  -4.7553 0.0000 1.5451
v  -28.5317 20.0000 9.2705
v  -4.0451 0.0000 2.9389
v  -24.2705 20.0000 17.6336
v  -2.9389 0.0000 4.0451
v  -17.6335 20.0000 24.2705
v  -1.5451 0.0000 4.7553
v  -9.2705 20.0000 28.5317
v  0.0000 0.0000 5.0000
v  0.0000 20.0000 30.0000
v  1.5451 0.0000 4.7553
v  9.2705 20.0000 28.5317
v  2.9389 0.0000 4.0451
v  17.6336 20.0000 24.2705
v  4.0451 0.0000 2.9389
v  24.2705 20.0000 17.6335
v  4.7553 0.0000 1.5451
v  28.5317 20.0000 9.2705
# 40 vertices

vn 0.6247 -0.7809 -0.0000
vn 0.5941 -0.7809 -0.1930
vn 0.5054 -0.7809 -0.3672
vn 0.3672 -0.7809 -0.5054
vn 0.1930 -0.7809 -0.5941
vn -0.0000 -0.7809 -0.6247
vn -0.1930 -0.7809 -0.5941
vn -0.3672 -0.7809 -0.5054
vn -0.5054 -0.7809 -0.3672
vn -0.5941 -0.7809 -0.1930
vn -0.6247 -0.7809 0.0000
vn -0.5941 -0.7809 0.1930
vn -0.5054 -0.7809 0.3672
vn -0.3672 -0.7809 0.5054
vn -0.1930 -0.7809 0.5941
vn 0.0000 -0.7809 0.6247
vn 0.1930 -0.7809 0.5941
vn 0.3672 -0.7809 0.5054
vn 0.5054 -0.7809 0.3672
vn 0.5941 -0.7809 0.1930
# 20 vertex normals

vt 0.7500 0.0000 0.1667
vt 0.8000 0.0000 0.1667
vt 0.8000 1.0000 1.0000
vt 0.7500 1.0000 1.0000
vt 0.8500 0.0000 0.1667
vt 0.8500 1.0000 1.0000
vt 0.9000 0.0000 0.1667
vt 0.9000 1.0000 1.0000
vt 0.9500 0.0000 0.1667
vt 0.9500 1.0000 1.0000
vt -0.0500 0.0000 0.1667
vt 0.0000 0.0000 0.1667
vt 0.0000 1.0000 1.0000
vt -0.0500 1.0000 1.0000
vt 0.0500 0.0000 0.1667
vt 0.0500 1.0000 1.0000
vt 0.1000 0.0000 0.1667
vt 0.1000 1.0000 1.0000
vt 0.1500 0.0000 0.1667
vt 0.1500 1.0000 1.0000
vt 0.2000 0.0000 0.1667
vt 0.2000 1.0000 1.0000
vt 0.2500 0.0000 0.1667
vt 0.2500 1.0000 1.0000
vt 0.3000 0.0000 0.1667
vt 0.3000 1.0000 1.0000
vt 0.3500 0.0000 0.1667
vt 0.3500 1.0000 1.0000
vt 0.4000 0.0000 0.1667
vt 0.4000 1.0000 1.0000
vt 0.4500 0.0000 0.1667
vt 0.4500 1.0000 1.0000
vt 0.5000 0.0000 0.1667
vt 0.5000 1.0000 1.0000
vt 0.5500 0.0000 0.1667
vt 0.5500 1.0000 1.0000
vt 0.6000 0.0000 0.1667
vt 0.6000 1.0000 1.0000
vt 0.6500 0.0000 0.1667
vt 0.6500 1.0000 1.0000
vt 0.7000 0.0000 0.1667
vt 0.7000 1.0000 1.0000
# 42 texture coords

o Cone01
g Cone01
usemtl wire_088088225
s 8
f 1/1/1 2/2/2 3/3/2 4/4/1 
f 2/2/2 5/5/3 6/6/3 3/3/2 
f 5/5/3 7/7/4 8/8/4 6/6/3 
f 7/7/4 9/9/5 10/10/5 8/8/4 
f 9/11/5 11/12/6 12/13/6 10/14/5 
f 11/12/6 13/15/7 14/16/7 12/13/6 
f 13/15/7 15/17/8 16/18/8 14/16/7 
f 15/17/8 17/19/9 18/20/9 16/18/8 
f 17/19/9 19/21/10 20/22/10 18/20/9 
f 19/21/10 21/23/11 22/24/11 20/22/10 
f 21/23/11 23/25/12 24/26/12 22/24/11 
f 23/25/12 25/27/13 26/28/13 24/26/12 
f 25/27/13 27/29/14 28/30/14 26/28/13 
f 27/29/14 29/31/15 30/32/15 28/30/14 
f 29/31/15 31/33/16 32/34/16 30/32/15 
f 31/33/16 33/35/17 34/36/17 32/34/16 
f 33/35/17 35/37/18 36/38/18 34/36/17 
f 35/37/18 37/39/19 38/40/19 36/38/18 
f 37/39/19 39/41/20 40/42/20 38/40/19 
f 39/41/20 1/1/1 4/4/1 40/42/20 
# 20 polygons

