# 3ds Max Wavefront OBJ Exporter v0.99 - (c)2007 guruware
# File Created: 08.12.2023 14:44:27

mtllib Skill_038_LightningMesh.mtl

#
# object DownCenterPlan
#

v  -49.7494 -13.4339 -0.0000
v  50.2506 -13.4339 -0.0000
v  50.2506 86.5661 -0.0000
v  -49.7494 86.5661 -0.0000
# 4 vertices

vn 0.0000 0.0000 1.0000
# 1 vertex normals

vt 0.0000 0.0000 0.0000
vt 1.0000 0.0000 0.0000
vt 1.0000 1.0000 0.0000
vt 0.0000 1.0000 0.0000
# 4 texture coords

o DownCenterPlan
g DownCenterPlan
usemtl Skill_038_LightningMesh_wire_177088027
s 1
f 1/1/1 2/2/1 3/3/1 4/4/1 
# 1 polygons

