# This file uses centimeters as units for non-parametric coordinates.

g default
v -8.933542 0.000000 -4.408661
v -5.287731 0.000000 -3.825030
v -1.641919 0.000000 -3.241399
v 2.003891 0.000000 -2.657767
v 5.649703 0.000000 -2.074135
v -7.880307 11.512320 -4.240058
v -5.287731 13.378477 -3.825030
v -1.641920 14.096231 -3.241399
v 2.003892 13.378477 -2.657767
v 4.596469 11.512320 -2.242740
v -9.186953 5.232947 -4.449228
v -5.414437 5.990499 -3.845314
v -1.641919 6.222778 -3.241399
v 2.130597 5.990499 -2.637482
v 5.903114 5.232948 -2.033568
v -6.490790 0.245044 4.091399
v -4.157391 0.245044 1.265541
v -1.823991 0.245044 -1.560317
v 0.509409 0.245044 -4.386175
v 2.842809 0.245044 -7.212032
v -5.816697 11.671610 3.275041
v -4.157391 13.523868 1.265541
v -1.823990 14.236275 -1.560317
v 0.509409 13.523868 -4.386175
v 2.168716 11.671610 -6.395673
v -6.652978 5.439013 4.287817
v -4.238484 6.190922 1.363750
v -1.823991 6.421470 -1.560317
v 0.590504 6.190922 -4.484384
v 3.004998 5.439013 -7.408451
v -4.416618 0.000000 0.912201
v -1.160291 0.000000 2.099176
v 2.096037 0.000000 3.286152
v 5.352364 0.000000 4.473128
v -6.732228 10.806676 0.068128
v -7.672945 0.000000 -0.274776
v -4.416618 12.558448 0.912201
v -1.160290 13.232207 2.099176
v 2.096037 12.558448 3.286152
v 4.411647 10.806676 4.130223
v 2.589398 0.000000 6.951635
v 2.157364 0.000000 3.230429
v 1.725329 0.000000 -0.490776
v 1.293295 0.000000 -4.211982
v 0.861261 0.000000 -7.933187
v 2.464588 11.680599 5.876620
v 2.619428 5.309439 7.210287
v 2.172379 6.078065 3.359755
v 2.157364 13.574035 3.230429
v 1.725329 6.313738 -0.490776
v 1.725329 14.302280 -0.490776
v 1.278280 6.078065 -4.341308
v 1.293295 13.574035 -4.211982
v 0.986071 11.680599 -6.858172
v 0.831231 5.309439 -8.191839
v -5.020501 0.000000 0.066040
v -3.220255 0.000000 3.027744
v -1.420010 0.000000 5.989450
v 0.380235 0.000000 8.951155
v -6.300675 10.806676 -2.040062
v -6.820747 0.000000 -2.895665
v -5.020501 12.558448 0.066040
v -3.220255 13.232207 3.027744
v -1.420010 12.558448 5.989450
v -0.139837 10.806676 8.095551
v -0.971283 -0.000001 7.605689
v 1.088612 -0.000001 4.574669
v 3.148506 -0.000001 1.543652
v 5.208398 -0.000001 -1.487367
v 7.268290 -0.000001 -4.518385
v -0.376203 11.426565 6.730062
v 1.088613 13.278823 4.574670
v 3.148507 13.991230 1.543651
v 5.208398 13.278823 -1.487367
v 6.673211 11.426565 -3.642757
v -1.114462 5.193967 7.816368
v 1.017023 5.945877 4.680010
v 3.148506 6.176425 1.543653
v 5.279986 5.945877 -1.592706
v 7.411468 5.193967 -4.729063
vt 0.007813 0.344918
vt 0.253868 0.393747
vt 0.500013 0.408739
vt 0.746088 0.393803
vt 0.992188 0.345030
vt 0.024478 0.007813
vt 0.262265 0.007839
vt 0.500025 0.007866
vt 0.737800 0.007893
vt 0.975574 0.007920
vt 0.262020 0.869683
vt 0.092853 0.749446
vt 0.499948 0.915948
vt 0.737880 0.869738
vt 0.907069 0.749539
vt 0.007813 0.344918
vt 0.253868 0.393747
vt 0.500013 0.408739
vt 0.746088 0.393803
vt 0.992188 0.345030
vt 0.024478 0.007813
vt 0.262265 0.007839
vt 0.500025 0.007866
vt 0.737800 0.007893
vt 0.975574 0.007920
vt 0.262020 0.869683
vt 0.092853 0.749446
vt 0.499948 0.915948
vt 0.737880 0.869738
vt 0.907069 0.749539
vt 0.024478 0.007813
vt 0.262020 0.869683
vt 0.499948 0.915948
vt 0.737880 0.869738
vt 0.907069 0.749539
vt 0.262265 0.007839
vt 0.500025 0.007866
vt 0.737800 0.007893
vt 0.975574 0.007920
vt 0.092853 0.749446
vt 0.007813 0.344918
vt 0.253868 0.393747
vt 0.262020 0.869683
vt 0.500013 0.408739
vt 0.499948 0.915948
vt 0.746088 0.393803
vt 0.737880 0.869738
vt 0.992188 0.345030
vt 0.907069 0.749539
vt 0.024478 0.007813
vt 0.262265 0.007839
vt 0.500025 0.007866
vt 0.737800 0.007893
vt 0.975574 0.007920
vt 0.092853 0.749446
vt 0.024478 0.007813
vt 0.262020 0.869683
vt 0.499948 0.915948
vt 0.737880 0.869738
vt 0.907069 0.749539
vt 0.262265 0.007839
vt 0.500025 0.007866
vt 0.737800 0.007893
vt 0.975574 0.007920
vt 0.092853 0.749446
vt 0.007813 0.344918
vt 0.253868 0.393747
vt 0.500013 0.408739
vt 0.746088 0.393803
vt 0.992188 0.345030
vt 0.024478 0.007813
vt 0.262265 0.007839
vt 0.500025 0.007866
vt 0.737800 0.007893
vt 0.975574 0.007920
vt 0.262020 0.869683
vt 0.092853 0.749446
vt 0.499948 0.915948
vt 0.737880 0.869738
vt 0.907069 0.749539
vn -0.158070 0.000000 0.987428
vn -0.158070 0.000000 0.987428
vn -0.158070 0.000000 0.987428
vn -0.158070 0.000000 0.987428
vn -0.158070 0.000000 0.987428
vn -0.158070 0.000000 0.987428
vn -0.158070 0.000000 0.987428
vn -0.158070 0.000000 0.987428
vn -0.158070 0.000000 0.987428
vn -0.158070 0.000000 0.987428
vn -0.158070 0.000000 0.987428
vn -0.158070 0.000000 0.987428
vn -0.158070 0.000000 0.987428
vn -0.158070 0.000000 0.987428
vn -0.158070 0.000000 0.987428
vn -0.158070 0.000000 0.987428
vn -0.158070 0.000000 0.987428
vn -0.158070 0.000000 0.987428
vn -0.158070 0.000000 0.987428
vn -0.158070 0.000000 0.987428
vn -0.158070 0.000000 0.987428
vn -0.158070 0.000000 0.987428
vn -0.158070 0.000000 0.987428
vn -0.158070 0.000000 0.987428
vn -0.158070 0.000000 0.987428
vn -0.158070 0.000000 0.987428
vn -0.158070 0.000000 0.987428
vn -0.158070 0.000000 0.987428
vn -0.158070 0.000000 0.987428
vn -0.158070 0.000000 0.987428
vn -0.158070 0.000000 0.987428
vn -0.158070 0.000000 0.987428
vn 0.771096 0.000000 0.636719
vn 0.771096 -0.000000 0.636719
vn 0.771096 0.000000 0.636719
vn 0.771096 0.000000 0.636719
vn 0.771096 -0.000000 0.636719
vn 0.771096 -0.000000 0.636719
vn 0.771096 -0.000000 0.636719
vn 0.771096 0.000000 0.636719
vn 0.771096 -0.000000 0.636719
vn 0.771096 0.000000 0.636719
vn 0.771096 -0.000000 0.636719
vn 0.771096 -0.000000 0.636719
vn 0.771096 0.000000 0.636719
vn 0.771096 0.000000 0.636719
vn 0.771096 0.000000 0.636718
vn 0.771096 -0.000000 0.636719
vn 0.771096 0.000000 0.636719
vn 0.771096 0.000000 0.636719
vn 0.771096 0.000000 0.636719
vn 0.771096 0.000000 0.636718
vn 0.771096 0.000000 0.636719
vn 0.771096 0.000000 0.636719
vn 0.771096 0.000000 0.636719
vn 0.771096 0.000000 0.636719
vn 0.771096 0.000000 0.636719
vn 0.771096 -0.000000 0.636719
vn 0.771096 0.000000 0.636719
vn 0.771096 0.000000 0.636719
vn 0.771096 -0.000000 0.636719
vn 0.771096 -0.000000 0.636719
vn 0.771096 -0.000000 0.636718
vn 0.771096 0.000000 0.636719
vn -0.342471 0.000000 0.939528
vn -0.342471 0.000000 0.939528
vn -0.342471 0.000000 0.939528
vn -0.342471 0.000000 0.939528
vn -0.342471 0.000000 0.939528
vn -0.342471 0.000000 0.939528
vn -0.342471 0.000000 0.939528
vn -0.342471 0.000000 0.939528
vn -0.342471 0.000000 0.939528
vn -0.342471 0.000000 0.939528
vn -0.342471 0.000000 0.939528
vn -0.342471 0.000000 0.939528
vn -0.342471 0.000000 0.939528
vn -0.342471 0.000000 0.939528
vn -0.342471 0.000000 0.939528
vn -0.342471 0.000000 0.939528
vn 0.993328 0.000000 -0.115326
vn 0.993328 0.000000 -0.115326
vn 0.993328 0.000000 -0.115326
vn 0.993328 0.000000 -0.115326
vn 0.993328 0.000000 -0.115326
vn 0.993328 0.000000 -0.115326
vn 0.993328 0.000000 -0.115326
vn 0.993328 0.000000 -0.115326
vn 0.993328 0.000000 -0.115326
vn 0.993328 0.000000 -0.115326
vn 0.993328 0.000000 -0.115326
vn 0.993328 0.000000 -0.115326
vn 0.993328 0.000000 -0.115326
vn 0.993328 0.000000 -0.115326
vn 0.993328 0.000000 -0.115326
vn 0.993328 0.000000 -0.115326
vn 0.993328 0.000000 -0.115326
vn 0.993328 0.000000 -0.115326
vn 0.993328 0.000000 -0.115326
vn 0.993328 0.000000 -0.115326
vn 0.993328 0.000000 -0.115326
vn 0.993328 0.000000 -0.115326
vn 0.993328 0.000000 -0.115326
vn 0.993328 0.000000 -0.115326
vn 0.993328 0.000000 -0.115326
vn 0.993328 0.000000 -0.115326
vn 0.993328 0.000000 -0.115326
vn 0.993328 0.000000 -0.115326
vn 0.993328 0.000000 -0.115326
vn 0.993328 0.000000 -0.115326
vn 0.993328 0.000000 -0.115326
vn 0.993328 0.000000 -0.115326
vn -0.854523 0.000000 0.519414
vn -0.854523 0.000000 0.519414
vn -0.854523 0.000000 0.519414
vn -0.854523 0.000000 0.519414
vn -0.854523 0.000000 0.519414
vn -0.854523 0.000000 0.519414
vn -0.854523 0.000000 0.519414
vn -0.854523 0.000000 0.519414
vn -0.854523 0.000000 0.519414
vn -0.854523 0.000000 0.519414
vn -0.854523 0.000000 0.519414
vn -0.854523 0.000000 0.519414
vn -0.854523 0.000000 0.519414
vn -0.854523 0.000000 0.519414
vn -0.854523 0.000000 0.519414
vn -0.854523 0.000000 0.519414
vn 0.827078 0.000000 0.562087
vn 0.827078 -0.000000 0.562087
vn 0.827078 0.000000 0.562087
vn 0.827078 0.000000 0.562087
vn 0.827078 -0.000000 0.562087
vn 0.827079 -0.000000 0.562086
vn 0.827079 0.000000 0.562086
vn 0.827078 0.000000 0.562087
vn 0.827079 -0.000000 0.562086
vn 0.827079 0.000000 0.562086
vn 0.827079 0.000000 0.562086
vn 0.827079 0.000000 0.562086
vn 0.827079 0.000000 0.562086
vn 0.827079 0.000000 0.562086
vn 0.827079 0.000000 0.562086
vn 0.827079 0.000000 0.562086
vn 0.827078 0.000000 0.562087
vn 0.827078 0.000000 0.562087
vn 0.827079 -0.000000 0.562086
vn 0.827078 -0.000000 0.562087
vn 0.827078 0.000000 0.562087
vn 0.827079 0.000000 0.562086
vn 0.827079 -0.000000 0.562086
vn 0.827079 -0.000000 0.562086
vn 0.827079 0.000000 0.562086
vn 0.827079 -0.000000 0.562086
vn 0.827079 -0.000000 0.562086
vn 0.827079 -0.000000 0.562086
vn 0.827079 -0.000000 0.562086
vn 0.827079 0.000000 0.562086
vn 0.827079 -0.000000 0.562086
vn 0.827079 -0.000000 0.562086
s off
g shrub
f 1/6/1 2/7/2 12/2/3 11/1/4
f 2/7/5 3/8/6 13/3/7 12/2/8
f 3/8/9 4/9/10 14/4/11 13/3/12
f 4/9/13 5/10/14 15/5/15 14/4/16
f 11/1/17 12/2/18 7/11/19 6/12/20
f 12/2/21 13/3/22 8/13/23 7/11/24
f 13/3/25 14/4/26 9/14/27 8/13/28
f 14/4/29 15/5/30 10/15/31 9/14/32
f 16/21/33 17/22/34 27/17/35 26/16/36
f 17/22/37 18/23/38 28/18/39 27/17/40
f 18/23/41 19/24/42 29/19/43 28/18/44
f 19/24/45 20/25/46 30/20/47 29/19/48
f 26/16/49 27/17/50 22/26/51 21/27/52
f 27/17/53 28/18/54 23/28/55 22/26/56
f 28/18/57 29/19/58 24/29/59 23/28/60
f 29/19/61 30/20/62 25/30/63 24/29/64
f 35/40/65 36/31/66 31/36/67 37/32/68
f 37/32/69 31/36/70 32/37/71 38/33/72
f 38/33/73 32/37/74 33/38/75 39/34/76
f 39/34/77 33/38/78 34/39/79 40/35/80
f 46/55/81 47/41/82 48/42/83 49/43/84
f 49/43/85 48/42/86 50/44/87 51/45/88
f 51/45/89 50/44/90 52/46/91 53/47/92
f 53/47/93 52/46/94 55/48/95 54/49/96
f 41/50/97 42/51/98 48/42/99 47/41/100
f 42/51/101 43/52/102 50/44/103 48/42/104
f 43/52/105 44/53/106 52/46/107 50/44/108
f 44/53/109 45/54/110 55/48/111 52/46/112
f 60/65/113 61/56/114 56/61/115 62/57/116
f 62/57/117 56/61/118 57/62/119 63/58/120
f 63/58/121 57/62/122 58/63/123 64/59/124
f 64/59/125 58/63/126 59/64/127 65/60/128
f 66/71/129 67/72/130 77/67/131 76/66/132
f 67/72/133 68/73/134 78/68/135 77/67/136
f 68/73/137 69/74/138 79/69/139 78/68/140
f 69/74/141 70/75/142 80/70/143 79/69/144
f 76/66/145 77/67/146 72/76/147 71/77/148
f 77/67/149 78/68/150 73/78/151 72/76/152
f 78/68/153 79/69/154 74/79/155 73/78/156
f 79/69/157 80/70/158 75/80/159 74/79/160
